<svg width="622" height="534" viewBox="0 0 622 534" fill="none" xmlns="http://www.w3.org/2000/svg">
<rect width="622" height="534" rx="4" fill="#121212" fill-opacity="0.04"/>
<g filter="url(#filter0_d_30_26)">
<rect x="190" y="28" width="400" height="271.708" rx="3.51073" fill="white" shape-rendering="crispEdges"/>
<path d="M213.003 60.5536H211.458V51.8611H208.172V50.4708H216.289V51.8611H213.003V60.5536ZM219.672 60.6941C217.565 60.6941 216.021 59.037 216.021 56.8323C216.021 54.6275 217.565 52.9705 219.672 52.9705C221.778 52.9705 223.323 54.6275 223.323 56.8323C223.323 59.037 221.778 60.6941 219.672 60.6941ZM219.672 59.4443C220.893 59.4443 221.862 58.4613 221.862 56.8323C221.862 55.2033 220.893 54.2343 219.672 54.2343C218.45 54.2343 217.495 55.2033 217.495 56.8323C217.495 58.4613 218.45 59.4443 219.672 59.4443ZM228.83 59.1774V60.4273C228.395 60.6239 228.016 60.6941 227.567 60.6941C226.19 60.6941 225.235 59.9498 225.235 58.3068V54.3186H223.592V53.1109H225.235V50.9062H226.654V53.1109H228.901V54.3186H226.654V57.9838C226.654 59.0089 227.145 59.374 227.904 59.374C228.241 59.374 228.536 59.3179 228.83 59.1774ZM234.762 60.5536V59.4021C234.299 60.2307 233.47 60.6941 232.375 60.6941C230.83 60.6941 229.819 59.8094 229.819 58.4472C229.819 56.9867 230.985 56.2284 233.203 56.2284C233.639 56.2284 233.99 56.2425 234.594 56.3127V55.765C234.594 54.6978 234.018 54.0939 233.035 54.0939C231.996 54.0939 231.364 54.7118 231.322 55.751H230.03C230.1 54.0799 231.293 52.9705 233.035 52.9705C234.874 52.9705 235.942 54.0097 235.942 55.7791V60.5536H234.762ZM231.167 58.4051C231.167 59.1774 231.743 59.683 232.656 59.683C233.849 59.683 234.594 58.9387 234.594 57.8012V57.1974C234.046 57.1272 233.653 57.1131 233.288 57.1131C231.869 57.1131 231.167 57.5344 231.167 58.4051ZM239.27 60.5536H237.838V50.4708H239.27V60.5536ZM245.831 60.5536H244.286V50.4708H248.05C250.367 50.4708 251.757 51.6083 251.757 53.6164C251.757 55.0629 250.844 56.1723 249.313 56.5374L252.052 60.5536H250.198L247.685 56.7621H245.831V60.5536ZM245.831 51.7628V55.4701H247.951C249.384 55.4701 250.198 54.8382 250.198 53.6164C250.198 52.4088 249.384 51.7628 247.951 51.7628H245.831ZM256.135 60.6941C253.987 60.6941 252.54 59.1353 252.54 56.7901C252.54 54.5854 254.043 52.9705 256.093 52.9705C258.312 52.9705 259.787 54.768 259.534 57.1834H253.987C254.099 58.7 254.857 59.5847 256.107 59.5847C257.161 59.5847 257.891 59.0089 258.129 58.04H259.534C259.169 59.697 257.891 60.6941 256.135 60.6941ZM256.065 54.0377C254.928 54.0377 254.155 54.8522 254.001 56.2425H258.031C257.961 54.8663 257.217 54.0377 256.065 54.0377ZM266.987 53.1109L264.193 60.5536H262.648L259.854 53.1109H261.384L263.449 58.9247L265.541 53.1109H266.987ZM270.823 60.6941C268.674 60.6941 267.228 59.1353 267.228 56.7901C267.228 54.5854 268.73 52.9705 270.781 52.9705C272.999 52.9705 274.474 54.768 274.221 57.1834H268.674C268.787 58.7 269.545 59.5847 270.795 59.5847C271.848 59.5847 272.578 59.0089 272.817 58.04H274.221C273.856 59.697 272.578 60.6941 270.823 60.6941ZM270.753 54.0377C269.615 54.0377 268.843 54.8522 268.688 56.2425H272.719C272.648 54.8663 271.904 54.0377 270.753 54.0377ZM277.148 56.3548V60.5536H275.729V53.1109H277.049V54.3467C277.555 53.5181 278.397 52.9705 279.422 52.9705C280.953 52.9705 281.964 53.9535 281.964 55.7369V60.5536H280.546V56.2144C280.546 54.9365 279.984 54.2203 278.931 54.2203C277.962 54.2203 277.148 55.0348 277.148 56.3548ZM288.496 57.4923V53.1109H289.914V60.5536H288.594V59.374C288.201 60.1464 287.33 60.6941 286.319 60.6941C284.817 60.6941 283.778 59.8094 283.778 57.8995V53.1109H285.196V57.6187C285.196 58.9106 285.842 59.4443 286.769 59.4443C287.724 59.4443 288.496 58.6579 288.496 57.4923ZM294.945 60.6941C292.797 60.6941 291.35 59.1353 291.35 56.7901C291.35 54.5854 292.853 52.9705 294.903 52.9705C297.122 52.9705 298.597 54.768 298.344 57.1834H292.797C292.909 58.7 293.667 59.5847 294.917 59.5847C295.971 59.5847 296.701 59.0089 296.939 58.04H298.344C297.979 59.697 296.701 60.6941 294.945 60.6941ZM294.875 54.0377C293.738 54.0377 292.965 54.8522 292.811 56.2425H296.841C296.771 54.8663 296.027 54.0377 294.875 54.0377ZM308.965 53.1109L305.244 63.2639H303.699L304.767 60.4553L301.832 53.1109H303.362L305.525 58.7842L307.533 53.1109H308.965ZM312.801 60.6941C310.652 60.6941 309.206 59.1353 309.206 56.7901C309.206 54.5854 310.708 52.9705 312.759 52.9705C314.977 52.9705 316.452 54.768 316.199 57.1834H310.652C310.765 58.7 311.523 59.5847 312.773 59.5847C313.826 59.5847 314.556 59.0089 314.795 58.04H316.199C315.834 59.697 314.556 60.6941 312.801 60.6941ZM312.731 54.0377C311.593 54.0377 310.821 54.8522 310.666 56.2425H314.697C314.626 54.8663 313.882 54.0377 312.731 54.0377ZM322.215 60.5536V59.4021C321.751 60.2307 320.923 60.6941 319.828 60.6941C318.283 60.6941 317.272 59.8094 317.272 58.4472C317.272 56.9867 318.437 56.2284 320.656 56.2284C321.091 56.2284 321.443 56.2425 322.046 56.3127V55.765C322.046 54.6978 321.471 54.0939 320.488 54.0939C319.448 54.0939 318.816 54.7118 318.774 55.751H317.482C317.553 54.0799 318.746 52.9705 320.488 52.9705C322.327 52.9705 323.394 54.0097 323.394 55.7791V60.5536H322.215ZM318.62 58.4051C318.62 59.1774 319.196 59.683 320.108 59.683C321.302 59.683 322.046 58.9387 322.046 57.8012V57.1974C321.499 57.1272 321.105 57.1131 320.74 57.1131C319.322 57.1131 318.62 57.5344 318.62 58.4051ZM326.709 56.748V60.5536H325.291V53.1109H326.611V54.6837C327.13 53.6586 328.254 53.0126 329.476 53.0126V54.4871C327.875 54.4029 326.709 55.105 326.709 56.748ZM332.03 60.5536H330.598V50.4708H332.03V60.5536ZM340.178 53.1109L336.457 63.2639H334.912L335.979 60.4553L333.044 53.1109H334.575L336.737 58.7842L338.746 53.1109H340.178Z" fill="#121212"/>
<path d="M209.044 77.0644H208.385V70.7626H209.044V77.0644ZM211.039 74.3699V77.0644H210.424V72.439H210.995V73.3079C211.293 72.7374 211.855 72.3512 212.522 72.3512C213.487 72.3512 214.11 72.9656 214.11 74.0627V77.0644H213.496V74.2734C213.496 73.3869 213.092 72.8866 212.338 72.8866C211.618 72.8866 211.039 73.5098 211.039 74.3699ZM215.062 74.7473C215.062 73.3255 215.852 72.3512 217.098 72.3512C217.791 72.3512 218.379 72.7462 218.687 73.4045V70.7626H219.301V77.0644H218.73V76.0902C218.406 76.766 217.809 77.1522 217.098 77.1522C215.852 77.1522 215.062 76.1692 215.062 74.7473ZM215.685 74.7473C215.685 75.9234 216.282 76.6168 217.186 76.6168C218.081 76.6168 218.695 75.8883 218.695 74.7298C218.695 73.5624 218.063 72.8866 217.186 72.8866C216.282 72.8866 215.685 73.5712 215.685 74.7473ZM221.431 71.3682C221.431 71.6403 221.229 71.8334 220.931 71.8334C220.641 71.8334 220.439 71.6403 220.439 71.3682C220.439 71.1049 220.641 70.9118 220.931 70.9118C221.229 70.9118 221.431 71.1049 221.431 71.3682ZM221.247 77.0644H220.632V72.439H221.247V77.0644ZM224.307 77.1609C223.087 77.1609 222.236 76.1692 222.236 74.7473C222.236 73.343 223.096 72.3512 224.307 72.3512C225.387 72.3512 226.159 73.0709 226.343 74.2295H225.72C225.58 73.3869 225.053 72.8866 224.307 72.8866C223.447 72.8866 222.859 73.6414 222.859 74.7473C222.859 75.8707 223.447 76.6256 224.307 76.6256C225.062 76.6256 225.58 76.134 225.72 75.2739H226.343C226.177 76.45 225.395 77.1609 224.307 77.1609ZM230.179 77.0644V76.2218C229.907 76.8011 229.345 77.1522 228.625 77.1522C227.669 77.1522 227.045 76.6168 227.045 75.783C227.045 74.879 227.765 74.405 229.169 74.405C229.45 74.405 229.661 74.4226 230.117 74.4577V74.0715C230.117 73.2991 229.705 72.8427 229.003 72.8427C228.248 72.8427 227.774 73.3079 227.765 74.0627H227.203C227.23 73.0358 227.941 72.3512 228.994 72.3512C230.073 72.3512 230.705 72.9832 230.705 74.0539V77.0644H230.179ZM227.633 75.7654C227.633 76.3271 228.064 76.7045 228.713 76.7045C229.573 76.7045 230.117 76.1428 230.117 75.2739V74.8614C229.722 74.8263 229.45 74.8175 229.196 74.8175C228.143 74.8175 227.633 75.1247 227.633 75.7654ZM234.351 76.4763V77.0205C234.114 77.1171 233.912 77.1522 233.683 77.1522C232.92 77.1522 232.332 76.7572 232.332 75.7566V72.9568H231.244V72.439H232.332V71.0698H232.946V72.439H234.394V72.9568H232.946V75.625C232.946 76.3447 233.297 76.5904 233.806 76.5904C233.999 76.5904 234.157 76.5553 234.351 76.4763ZM237.03 77.1522C235.757 77.1522 234.835 76.1428 234.835 74.7473C234.835 73.3606 235.757 72.36 237.03 72.36C238.311 72.36 239.233 73.3606 239.233 74.7473C239.233 76.1428 238.311 77.1522 237.03 77.1522ZM237.03 76.6168C237.934 76.6168 238.609 75.8971 238.609 74.7473C238.609 73.6151 237.934 72.8954 237.03 72.8954C236.134 72.8954 235.458 73.6151 235.458 74.7473C235.458 75.8971 236.134 76.6168 237.03 76.6168ZM240.84 74.5893V77.0644H240.226V72.439H240.796V73.4922C241.112 72.8076 241.797 72.3688 242.561 72.3688V73.0095C241.586 72.9744 240.84 73.58 240.84 74.5893ZM246.77 75.7742C246.77 76.6256 246.085 77.1522 244.944 77.1522C243.794 77.1522 243.092 76.5729 243.004 75.6162H243.592C243.636 76.2745 244.154 76.687 244.944 76.687C245.699 76.687 246.155 76.3974 246.155 75.8707C246.155 75.4143 245.892 75.2037 245.19 75.0633L244.523 74.9316C243.645 74.7649 243.18 74.3348 243.18 73.6678C243.18 72.8954 243.865 72.3512 244.874 72.3512C245.936 72.3512 246.638 72.9217 246.708 73.8433H246.129C246.068 73.2026 245.602 72.8252 244.874 72.8252C244.224 72.8252 243.777 73.1324 243.777 73.6151C243.777 74.0715 244.058 74.2909 244.742 74.4226L245.436 74.5542C246.357 74.7298 246.77 75.1159 246.77 75.7742ZM248.855 72.9832C248.855 73.3079 248.627 73.5361 248.302 73.5361C247.986 73.5361 247.749 73.3079 247.749 72.9832C247.749 72.6584 247.986 72.4215 248.302 72.4215C248.627 72.4215 248.855 72.6584 248.855 72.9832ZM248.855 76.5553C248.855 76.8713 248.627 77.1083 248.302 77.1083C247.986 77.1083 247.749 76.8713 247.749 76.5553C247.749 76.2218 247.986 75.9936 248.302 75.9936C248.627 75.9936 248.855 76.2218 248.855 76.5553Z" fill="#353535"/>
<circle cx="256.575" cy="74.0644" r="3.51073" fill="#FD6868"/>
<path d="M268.401 77.0644H264.802V70.7626H265.46V76.4763H268.401V77.0644ZM271.041 77.1522C269.769 77.1522 268.847 76.1428 268.847 74.7473C268.847 73.3606 269.769 72.36 271.041 72.36C272.323 72.36 273.244 73.3606 273.244 74.7473C273.244 76.1428 272.323 77.1522 271.041 77.1522ZM271.041 76.6168C271.945 76.6168 272.621 75.8971 272.621 74.7473C272.621 73.6151 271.945 72.8954 271.041 72.8954C270.146 72.8954 269.47 73.6151 269.47 74.7473C269.47 75.8971 270.146 76.6168 271.041 76.6168ZM277.997 77.0644L276.785 73.2553L275.583 77.0644H274.96L273.608 72.439H274.214L275.285 76.1955L276.487 72.439H277.093L278.286 76.2043L279.357 72.439H279.971L278.611 77.0644H277.997Z" fill="#454545"/>
<circle cx="298.15" cy="74.0644" r="3.51073" fill="#F2BD5B"/>
<path d="M310.607 77.0644L309.949 75.3178H307.009L306.342 77.0644H305.692L308.141 70.7626H308.861L311.3 77.0644H310.607ZM308.483 71.4648L307.21 74.7824H309.738L308.483 71.4648ZM315.42 72.439L313.638 77.0644H312.997L311.233 72.439H311.891L313.34 76.3447L314.788 72.439H315.42ZM317.813 77.1522C316.514 77.1522 315.654 76.1779 315.654 74.7122C315.654 73.3606 316.549 72.3512 317.778 72.3512C319.094 72.3512 319.954 73.4132 319.849 74.8965H316.268C316.321 75.9936 316.9 76.6694 317.804 76.6694C318.576 76.6694 319.112 76.2394 319.261 75.5021H319.867C319.656 76.529 318.875 77.1522 317.813 77.1522ZM317.769 72.8252C316.935 72.8252 316.347 73.4659 316.268 74.4752H319.208C319.156 73.4396 318.62 72.8252 317.769 72.8252ZM321.479 74.5893V77.0644H320.864V72.439H321.435V73.4922C321.751 72.8076 322.436 72.3688 323.199 72.3688V73.0095C322.225 72.9744 321.479 73.58 321.479 74.5893ZM326.794 77.0644V76.2218C326.522 76.8011 325.96 77.1522 325.24 77.1522C324.284 77.1522 323.66 76.6168 323.66 75.783C323.66 74.879 324.38 74.405 325.784 74.405C326.065 74.405 326.276 74.4226 326.732 74.4577V74.0715C326.732 73.2991 326.32 72.8427 325.618 72.8427C324.863 72.8427 324.389 73.3079 324.38 74.0627H323.818C323.845 73.0358 324.556 72.3512 325.609 72.3512C326.688 72.3512 327.32 72.9832 327.32 74.0539V77.0644H326.794ZM324.248 75.7654C324.248 76.3271 324.679 76.7045 325.328 76.7045C326.188 76.7045 326.732 76.1428 326.732 75.2739V74.8614C326.337 74.8263 326.065 74.8175 325.811 74.8175C324.758 74.8175 324.248 75.1247 324.248 75.7654ZM330.359 78.8549C329.183 78.8549 328.446 78.2405 328.393 77.2048H328.981C329.034 77.9596 329.526 78.3634 330.351 78.3634C331.263 78.3634 331.746 77.8806 331.746 76.9678V76.0024C331.465 76.6519 330.904 77.0293 330.219 77.0293C329.052 77.0293 328.27 76.0902 328.27 74.6859C328.27 73.2816 329.043 72.3512 330.21 72.3512C330.904 72.3512 331.483 72.7462 331.781 73.422V72.439H332.352V76.9591C332.352 78.1527 331.623 78.8549 330.359 78.8549ZM328.885 74.6859C328.885 75.8181 329.42 76.5027 330.307 76.5027C331.176 76.5027 331.755 75.8005 331.755 74.7298C331.755 73.5975 331.184 72.8778 330.307 72.8778C329.429 72.8778 328.885 73.5624 328.885 74.6859ZM335.504 77.1522C334.205 77.1522 333.345 76.1779 333.345 74.7122C333.345 73.3606 334.24 72.3512 335.469 72.3512C336.785 72.3512 337.645 73.4132 337.54 74.8965H333.959C334.012 75.9936 334.591 76.6694 335.495 76.6694C336.267 76.6694 336.803 76.2394 336.952 75.5021H337.557C337.347 76.529 336.566 77.1522 335.504 77.1522ZM335.46 72.8252C334.626 72.8252 334.038 73.4659 333.959 74.4752H336.899C336.847 73.4396 336.311 72.8252 335.46 72.8252Z" fill="#454545"/>
<circle cx="355.725" cy="74.0644" r="3.51073" fill="#67C788"/>
<path d="M364.458 77.0644H363.799V70.7626H364.458V73.5273H368.039V70.7626H368.697V77.0644H368.039V74.0978H364.458V77.0644ZM370.871 71.3682C370.871 71.6403 370.669 71.8334 370.371 71.8334C370.081 71.8334 369.879 71.6403 369.879 71.3682C369.879 71.1049 370.081 70.9118 370.371 70.9118C370.669 70.9118 370.871 71.1049 370.871 71.3682ZM370.687 77.0644H370.072V72.439H370.687V77.0644ZM373.765 78.8549C372.589 78.8549 371.851 78.2405 371.799 77.2048H372.387C372.439 77.9596 372.931 78.3634 373.756 78.3634C374.669 78.3634 375.151 77.8806 375.151 76.9678V76.0024C374.871 76.6519 374.309 77.0293 373.624 77.0293C372.457 77.0293 371.676 76.0902 371.676 74.6859C371.676 73.2816 372.448 72.3512 373.616 72.3512C374.309 72.3512 374.888 72.7462 375.187 73.422V72.439H375.757V76.9591C375.757 78.1527 375.029 78.8549 373.765 78.8549ZM372.29 74.6859C372.29 75.8181 372.826 76.5027 373.712 76.5027C374.581 76.5027 375.16 75.8005 375.16 74.7298C375.16 73.5975 374.59 72.8778 373.712 72.8778C372.834 72.8778 372.29 73.5624 372.29 74.6859ZM377.707 74.3699V77.0644H377.092V70.7626H377.707V73.2904C377.996 72.7374 378.523 72.3512 379.19 72.3512C380.155 72.3512 380.778 72.9656 380.778 74.0627V77.0644H380.164V74.2734C380.164 73.3869 379.76 72.8866 379.006 72.8866C378.286 72.8866 377.707 73.5098 377.707 74.3699Z" fill="#454545"/>
<path d="M248.708 279.719V280.154H245.844V279.874L247.36 278.16C247.936 277.507 248.147 277.156 248.147 276.7C248.147 276.166 247.753 275.773 247.199 275.773C246.623 275.773 246.216 276.173 246.216 276.763H245.738C245.738 275.935 246.349 275.338 247.22 275.338C248.048 275.338 248.659 275.892 248.659 276.658C248.659 277.17 248.456 277.556 247.725 278.371L246.567 279.719H248.708ZM249.402 277.788C249.402 276.215 250.005 275.338 251.087 275.338C252.161 275.338 252.772 276.215 252.772 277.788C252.772 279.361 252.175 280.225 251.087 280.225C249.991 280.225 249.402 279.361 249.402 277.788ZM249.907 277.788C249.907 279.094 250.307 279.789 251.087 279.789C251.852 279.789 252.266 279.101 252.266 277.788C252.266 276.468 251.852 275.773 251.087 275.773C250.321 275.773 249.907 276.461 249.907 277.788ZM256.381 279.719V280.154H253.516V279.874L255.033 278.16C255.609 277.507 255.819 277.156 255.819 276.7C255.819 276.166 255.426 275.773 254.872 275.773C254.296 275.773 253.889 276.173 253.889 276.763H253.411C253.411 275.935 254.022 275.338 254.893 275.338C255.721 275.338 256.332 275.892 256.332 276.658C256.332 277.17 256.128 277.556 255.398 278.371L254.24 279.719H256.381ZM257.074 277.788C257.074 276.215 257.678 275.338 258.76 275.338C259.834 275.338 260.445 276.215 260.445 277.788C260.445 279.361 259.848 280.225 258.76 280.225C257.664 280.225 257.074 279.361 257.074 277.788ZM257.58 277.788C257.58 279.094 257.98 279.789 258.76 279.789C259.525 279.789 259.939 279.101 259.939 277.788C259.939 276.468 259.525 275.773 258.76 275.773C257.994 275.773 257.58 276.461 257.58 277.788Z" fill="#595959"/>
<path d="M311.611 279.719V280.154H308.746V279.874L310.263 278.16C310.839 277.507 311.049 277.156 311.049 276.7C311.049 276.166 310.656 275.773 310.101 275.773C309.526 275.773 309.118 276.173 309.118 276.763H308.641C308.641 275.935 309.252 275.338 310.122 275.338C310.951 275.338 311.562 275.892 311.562 276.658C311.562 277.17 311.358 277.556 310.628 278.371L309.469 279.719H311.611ZM312.304 277.788C312.304 276.215 312.908 275.338 313.989 275.338C315.064 275.338 315.674 276.215 315.674 277.788C315.674 279.361 315.078 280.225 313.989 280.225C312.894 280.225 312.304 279.361 312.304 277.788ZM312.81 277.788C312.81 279.094 313.21 279.789 313.989 279.789C314.755 279.789 315.169 279.101 315.169 277.788C315.169 276.468 314.755 275.773 313.989 275.773C313.224 275.773 312.81 276.461 312.81 277.788ZM319.284 279.719V280.154H316.419V279.874L317.936 278.16C318.511 277.507 318.722 277.156 318.722 276.7C318.722 276.166 318.329 275.773 317.774 275.773C317.198 275.773 316.791 276.173 316.791 276.763H316.314C316.314 275.935 316.925 275.338 317.795 275.338C318.624 275.338 319.235 275.892 319.235 276.658C319.235 277.17 319.031 277.556 318.301 278.371L317.142 279.719H319.284ZM321.164 280.154H320.679V275.829H319.745V275.408H321.164V280.154Z" fill="#595959"/>
<path d="M372.823 279.719V280.154H369.958V279.874L371.475 278.16C372.051 277.507 372.262 277.156 372.262 276.7C372.262 276.166 371.868 275.773 371.314 275.773C370.738 275.773 370.331 276.173 370.331 276.763H369.853C369.853 275.935 370.464 275.338 371.335 275.338C372.163 275.338 372.774 275.892 372.774 276.658C372.774 277.17 372.57 277.556 371.84 278.371L370.682 279.719H372.823ZM373.517 277.788C373.517 276.215 374.12 275.338 375.202 275.338C376.276 275.338 376.887 276.215 376.887 277.788C376.887 279.361 376.29 280.225 375.202 280.225C374.106 280.225 373.517 279.361 373.517 277.788ZM374.022 277.788C374.022 279.094 374.422 279.789 375.202 279.789C375.967 279.789 376.381 279.101 376.381 277.788C376.381 276.468 375.967 275.773 375.202 275.773C374.436 275.773 374.022 276.461 374.022 277.788ZM380.496 279.719V280.154H377.631V279.874L379.148 278.16C379.724 277.507 379.934 277.156 379.934 276.7C379.934 276.166 379.541 275.773 378.986 275.773C378.411 275.773 378.003 276.173 378.003 276.763H377.526C377.526 275.935 378.137 275.338 379.008 275.338C379.836 275.338 380.447 275.892 380.447 276.658C380.447 277.17 380.243 277.556 379.513 278.371L378.355 279.719H380.496ZM384.082 279.719V280.154H381.217V279.874L382.734 278.16C383.31 277.507 383.521 277.156 383.521 276.7C383.521 276.166 383.127 275.773 382.573 275.773C381.997 275.773 381.59 276.173 381.59 276.763H381.112C381.112 275.935 381.723 275.338 382.594 275.338C383.422 275.338 384.033 275.892 384.033 276.658C384.033 277.17 383.829 277.556 383.099 278.371L381.941 279.719H384.082Z" fill="#595959"/>
<path d="M434.564 279.719V280.154H431.699V279.874L433.215 278.16C433.791 277.507 434.002 277.156 434.002 276.7C434.002 276.166 433.609 275.773 433.054 275.773C432.478 275.773 432.071 276.173 432.071 276.763H431.593C431.593 275.935 432.204 275.338 433.075 275.338C433.904 275.338 434.514 275.892 434.514 276.658C434.514 277.17 434.311 277.556 433.581 278.371L432.422 279.719H434.564ZM435.257 277.788C435.257 276.215 435.861 275.338 436.942 275.338C438.016 275.338 438.627 276.215 438.627 277.788C438.627 279.361 438.03 280.225 436.942 280.225C435.847 280.225 435.257 279.361 435.257 277.788ZM435.762 277.788C435.762 279.094 436.163 279.789 436.942 279.789C437.707 279.789 438.122 279.101 438.122 277.788C438.122 276.468 437.707 275.773 436.942 275.773C436.177 275.773 435.762 276.461 435.762 277.788ZM442.236 279.719V280.154H439.372V279.874L440.888 278.16C441.464 277.507 441.675 277.156 441.675 276.7C441.675 276.166 441.282 275.773 440.727 275.773C440.151 275.773 439.744 276.173 439.744 276.763H439.266C439.266 275.935 439.877 275.338 440.748 275.338C441.576 275.338 442.187 275.892 442.187 276.658C442.187 277.17 441.984 277.556 441.253 278.371L440.095 279.719H442.236ZM444.518 280.218C443.577 280.218 442.931 279.663 442.91 278.841H443.387C443.415 279.438 443.858 279.817 444.518 279.817C445.199 279.817 445.613 279.445 445.613 278.848C445.613 278.28 445.15 277.915 444.419 277.915H443.949V277.507H444.405C444.988 277.507 445.395 277.135 445.395 276.602C445.395 276.089 445.016 275.738 444.476 275.738C443.914 275.738 443.542 276.089 443.514 276.637H443.043C443.064 275.892 443.682 275.338 444.49 275.338C445.332 275.338 445.901 275.85 445.901 276.58C445.901 277.072 445.606 277.465 445.086 277.683C445.739 277.844 446.119 278.266 446.119 278.841C446.119 279.656 445.473 280.218 444.518 280.218Z" fill="#595959"/>
<path d="M496.606 279.719V280.154H493.741V279.874L495.257 278.16C495.833 277.507 496.044 277.156 496.044 276.7C496.044 276.166 495.651 275.773 495.096 275.773C494.52 275.773 494.113 276.173 494.113 276.763H493.636C493.636 275.935 494.246 275.338 495.117 275.338C495.946 275.338 496.556 275.892 496.556 276.658C496.556 277.17 496.353 277.556 495.623 278.371L494.464 279.719H496.606ZM497.299 277.788C497.299 276.215 497.903 275.338 498.984 275.338C500.058 275.338 500.669 276.215 500.669 277.788C500.669 279.361 500.072 280.225 498.984 280.225C497.889 280.225 497.299 279.361 497.299 277.788ZM497.804 277.788C497.804 279.094 498.205 279.789 498.984 279.789C499.749 279.789 500.164 279.101 500.164 277.788C500.164 276.468 499.749 275.773 498.984 275.773C498.219 275.773 497.804 276.461 497.804 277.788ZM504.278 279.719V280.154H501.414V279.874L502.93 278.16C503.506 277.507 503.717 277.156 503.717 276.7C503.717 276.166 503.324 275.773 502.769 275.773C502.193 275.773 501.786 276.173 501.786 276.763H501.308C501.308 275.935 501.919 275.338 502.79 275.338C503.618 275.338 504.229 275.892 504.229 276.658C504.229 277.17 504.026 277.556 503.295 278.371L502.137 279.719H504.278ZM508.066 279.024H507.427V280.154H506.942V279.024H504.632V278.694L507.083 275.408H507.427V278.596H508.066V279.024ZM505.201 278.596H506.942V276.208L505.201 278.596Z" fill="#595959"/>
<path d="M558.514 279.719V280.154H555.649V279.874L557.166 278.16C557.742 277.507 557.952 277.156 557.952 276.7C557.952 276.166 557.559 275.773 557.004 275.773C556.429 275.773 556.021 276.173 556.021 276.763H555.544C555.544 275.935 556.155 275.338 557.025 275.338C557.854 275.338 558.465 275.892 558.465 276.658C558.465 277.17 558.261 277.556 557.531 278.371L556.372 279.719H558.514ZM559.207 277.788C559.207 276.215 559.811 275.338 560.892 275.338C561.967 275.338 562.578 276.215 562.578 277.788C562.578 279.361 561.981 280.225 560.892 280.225C559.797 280.225 559.207 279.361 559.207 277.788ZM559.713 277.788C559.713 279.094 560.113 279.789 560.892 279.789C561.658 279.789 562.072 279.101 562.072 277.788C562.072 276.468 561.658 275.773 560.892 275.773C560.127 275.773 559.713 276.461 559.713 277.788ZM566.187 279.719V280.154H563.322V279.874L564.839 278.16C565.414 277.507 565.625 277.156 565.625 276.7C565.625 276.166 565.232 275.773 564.677 275.773C564.101 275.773 563.694 276.173 563.694 276.763H563.217C563.217 275.935 563.828 275.338 564.698 275.338C565.527 275.338 566.138 275.892 566.138 276.658C566.138 277.17 565.934 277.556 565.204 278.371L564.045 279.719H566.187ZM568.397 280.225C567.533 280.225 566.873 279.642 566.845 278.834H567.322C567.365 279.417 567.8 279.789 568.397 279.789C569.12 279.789 569.534 279.34 569.534 278.673C569.534 278.076 569.085 277.599 568.411 277.599C567.954 277.599 567.603 277.795 567.372 278.16L566.992 278.048L567.407 275.408H569.766V275.836H567.758L567.498 277.549C567.786 277.29 568.109 277.177 568.474 277.177C569.443 277.177 570.033 277.851 570.033 278.666C570.033 279.558 569.415 280.225 568.397 280.225Z" fill="#595959"/>
<path d="M214.38 93.6505V94.0858H211.515V93.805L213.032 92.0917C213.608 91.4387 213.818 91.0877 213.818 90.6313C213.818 90.0976 213.425 89.7044 212.87 89.7044C212.295 89.7044 211.887 90.1046 211.887 90.6945H211.41C211.41 89.8659 212.021 89.2691 212.891 89.2691C213.72 89.2691 214.331 89.8238 214.331 90.5891C214.331 91.1017 214.127 91.4879 213.397 92.3024L212.238 93.6505H214.38ZM215.073 91.7196C215.073 90.1468 215.677 89.2691 216.758 89.2691C217.833 89.2691 218.444 90.1468 218.444 91.7196C218.444 93.2924 217.847 94.156 216.758 94.156C215.663 94.156 215.073 93.2924 215.073 91.7196ZM215.579 91.7196C215.579 93.0256 215.979 93.7207 216.758 93.7207C217.524 93.7207 217.938 93.0326 217.938 91.7196C217.938 90.3996 217.524 89.7044 216.758 89.7044C215.993 89.7044 215.579 90.3925 215.579 91.7196ZM219.827 94.0858H219.336V90.3855H219.792V91.0806C220.038 90.6032 220.473 90.3153 221 90.3153C221.575 90.3153 222.004 90.6313 222.158 91.1719C222.39 90.6523 222.853 90.3153 223.436 90.3153C224.201 90.3153 224.679 90.8208 224.679 91.6845V94.0858H224.194V91.846C224.194 91.1438 223.871 90.7436 223.275 90.7436C222.713 90.7436 222.256 91.2351 222.256 91.9162V94.0858H221.765V91.846C221.765 91.1438 221.442 90.7436 220.845 90.7436C220.276 90.7436 219.827 91.2351 219.827 91.9162V94.0858Z" fill="#595959"/>
<path d="M214.538 137.914H214.053V133.589H213.119V133.168H214.538V137.914ZM217.014 137.984C216.15 137.984 215.49 137.402 215.462 136.594H215.94C215.982 137.177 216.417 137.549 217.014 137.549C217.737 137.549 218.151 137.1 218.151 136.433C218.151 135.836 217.702 135.358 217.028 135.358C216.572 135.358 216.22 135.555 215.989 135.92L215.61 135.808L216.024 133.168H218.383V133.596H216.375L216.115 135.309C216.403 135.049 216.726 134.937 217.091 134.937C218.06 134.937 218.65 135.611 218.65 136.426C218.65 137.317 218.032 137.984 217.014 137.984ZM219.963 137.914H219.472V134.214H219.928V134.909C220.174 134.431 220.609 134.144 221.136 134.144C221.711 134.144 222.14 134.46 222.294 135C222.526 134.481 222.989 134.144 223.572 134.144C224.337 134.144 224.815 134.649 224.815 135.513V137.914H224.33V135.674C224.33 134.972 224.007 134.572 223.411 134.572C222.849 134.572 222.392 135.063 222.392 135.744V137.914H221.901V135.674C221.901 134.972 221.578 134.572 220.981 134.572C220.412 134.572 219.963 135.063 219.963 135.744V137.914Z" fill="#595959"/>
<path d="M214.394 181.742H213.909V177.417H212.975V176.996H214.394V181.742ZM215.353 179.376C215.353 177.803 215.957 176.926 217.038 176.926C218.113 176.926 218.724 177.803 218.724 179.376C218.724 180.949 218.127 181.813 217.038 181.813C215.943 181.813 215.353 180.949 215.353 179.376ZM215.859 179.376C215.859 180.682 216.259 181.377 217.038 181.377C217.804 181.377 218.218 180.689 218.218 179.376C218.218 178.056 217.804 177.361 217.038 177.361C216.273 177.361 215.859 178.049 215.859 179.376ZM220.107 181.742H219.616V178.042H220.072V178.737C220.318 178.26 220.753 177.972 221.28 177.972C221.855 177.972 222.284 178.288 222.438 178.829C222.67 178.309 223.133 177.972 223.716 177.972C224.481 177.972 224.959 178.477 224.959 179.341V181.742H224.474V179.503C224.474 178.8 224.151 178.4 223.555 178.4C222.993 178.4 222.536 178.892 222.536 179.573V181.742H222.045V179.503C222.045 178.8 221.722 178.4 221.125 178.4C220.556 178.4 220.107 178.892 220.107 179.573V181.742Z" fill="#595959"/>
<path d="M216.941 225.641C216.077 225.641 215.417 225.058 215.389 224.251H215.867C215.909 224.833 216.344 225.206 216.941 225.206C217.664 225.206 218.078 224.756 218.078 224.089C218.078 223.492 217.629 223.015 216.955 223.015C216.498 223.015 216.147 223.212 215.916 223.577L215.537 223.464L215.951 220.824H218.31V221.253H216.302L216.042 222.966C216.33 222.706 216.653 222.594 217.018 222.594C217.987 222.594 218.577 223.268 218.577 224.082C218.577 224.974 217.959 225.641 216.941 225.641ZM219.89 225.571H219.398V221.87H219.855V222.566C220.101 222.088 220.536 221.8 221.063 221.8C221.638 221.8 222.067 222.116 222.221 222.657C222.453 222.137 222.916 221.8 223.499 221.8C224.264 221.8 224.742 222.306 224.742 223.169V225.571H224.257V223.331C224.257 222.629 223.934 222.229 223.337 222.229C222.776 222.229 222.319 222.72 222.319 223.401V225.571H221.828V223.331C221.828 222.629 221.505 222.229 220.908 222.229C220.339 222.229 219.89 222.72 219.89 223.401V225.571Z" fill="#595959"/>
<path d="M221.469 267.033C221.469 265.46 222.072 264.582 223.154 264.582C224.228 264.582 224.839 265.46 224.839 267.033C224.839 268.606 224.242 269.469 223.154 269.469C222.058 269.469 221.469 268.606 221.469 267.033ZM221.974 267.033C221.974 268.339 222.374 269.034 223.154 269.034C223.919 269.034 224.333 268.346 224.333 267.033C224.333 265.713 223.919 265.018 223.154 265.018C222.388 265.018 221.974 265.706 221.974 267.033Z" fill="#595959"/>
<line x1="233.245" y1="91.9131" x2="546.356" y2="91.9131" stroke="#F2F2F2" stroke-opacity="0.6" stroke-width="0.877682"/>
<line x1="233.245" y1="135.797" x2="546.356" y2="135.797" stroke="#F2F2F2" stroke-opacity="0.6" stroke-width="0.877682"/>
<line x1="233.245" y1="179.681" x2="546.356" y2="179.681" stroke="#F2F2F2" stroke-opacity="0.6" stroke-width="0.877682"/>
<line x1="233.245" y1="223.565" x2="546.356" y2="223.565" stroke="#F2F2F2" stroke-opacity="0.6" stroke-width="0.877682"/>
<line x1="233.245" y1="267.449" x2="546.356" y2="267.449" stroke="#F2F2F2" stroke-opacity="0.6" stroke-width="0.877682"/>
<path d="M267.064 251.131L239.587 267.888H573.107V94.985L538.877 103.762L501.576 132.725L462.957 186.287L448.915 147.646L407.664 164.322L384.079 186.287L346.653 205.23L312.544 230.002L299.516 248.945L282.698 257.688L267.064 251.131Z" fill="url(#paint0_linear_30_26)"/>
<path d="M573.107 94.985L538.455 103.724L501.398 132.856L462.896 186.021L448.939 147.422L407.55 164.172L384.931 186.021L346.91 204.957L312.259 229.719L299.024 248.654L281.939 257.394L266.057 250.839L239.587 266.133" stroke="#13AEFB" stroke-width="0.877682"/>
<circle cx="265.918" cy="251.212" r="3.51073" fill="#FD6868"/>
<circle cx="281.716" cy="256.478" r="3.51073" fill="#FD6868"/>
<circle cx="299.27" cy="249.457" r="3.51073" fill="#FD6868"/>
<circle cx="313.313" cy="229.27" r="3.51073" fill="#FD6868"/>
<circle cx="347.542" cy="203.818" r="3.51073" fill="#FD6868"/>
<circle cx="385.283" cy="185.386" r="3.51073" fill="#F2BD5B"/>
<circle cx="407.665" cy="164.322" r="3.51073" fill="#67C788"/>
<circle cx="448.039" cy="148.524" r="3.51073" fill="#67C788"/>
<circle cx="483.146" cy="157.3" r="3.51073" fill="#67C788"/>
<circle cx="462.959" cy="185.386" r="3.51073" fill="#F2BD5B"/>
<circle cx="502.455" cy="133.603" r="3.51073" fill="#67C788"/>
<circle cx="517.375" cy="120.438" r="3.51073" fill="#67C788"/>
<circle cx="539.318" cy="104.639" r="3.51073" fill="#67C788"/>
<circle cx="569.159" cy="94.9849" r="3.51073" fill="#67C788"/>
</g>
<g filter="url(#filter1_d_30_26)">
<rect x="40" y="316" width="408" height="190" rx="4" fill="white" shape-rendering="crispEdges"/>
<path d="M69.232 353H67.008V357H65.248V345.512H69.232C71.808 345.512 73.472 346.824 73.472 349.224C73.472 351.64 71.808 353 69.232 353ZM69.216 347H67.008V351.512H69.216C70.768 351.512 71.712 350.664 71.712 349.24C71.712 347.816 70.768 347 69.216 347ZM78.4361 357.16C75.9881 357.16 74.3401 355.384 74.3401 352.712C74.3401 350.2 76.0521 348.36 78.3881 348.36C80.9161 348.36 82.5961 350.408 82.3081 353.16H75.9881C76.1161 354.888 76.9801 355.896 78.4041 355.896C79.6041 355.896 80.4361 355.24 80.7081 354.136H82.3081C81.8921 356.024 80.4361 357.16 78.4361 357.16ZM78.3561 349.576C77.0601 349.576 76.1801 350.504 76.0041 352.088H80.5961C80.5161 350.52 79.6681 349.576 78.3561 349.576ZM85.6423 352.664V357H84.0263V348.52H85.5303V350.312C86.1223 349.144 87.4023 348.408 88.7943 348.408V350.088C86.9703 349.992 85.6423 350.792 85.6423 352.664ZM92.9415 357H91.3255V349.896H89.4535V348.52H91.3255V347.896C91.3255 346.264 92.2055 345.368 93.8055 345.368C94.2855 345.368 94.6695 345.448 94.9895 345.576V346.888C94.7335 346.776 94.4455 346.744 94.1575 346.744C93.3895 346.744 92.9415 347.096 92.9415 347.912V348.52H95.3095V349.896H92.9415V357ZM99.8595 357.16C97.4595 357.16 95.6995 355.272 95.6995 352.76C95.6995 350.248 97.4595 348.36 99.8595 348.36C102.26 348.36 104.02 350.248 104.02 352.76C104.02 355.272 102.26 357.16 99.8595 357.16ZM99.8595 355.736C101.252 355.736 102.356 354.616 102.356 352.76C102.356 350.904 101.252 349.8 99.8595 349.8C98.4675 349.8 97.3795 350.904 97.3795 352.76C97.3795 354.616 98.4675 355.736 99.8595 355.736ZM107.283 352.664V357H105.667V348.52H107.171V350.312C107.763 349.144 109.043 348.408 110.435 348.408V350.088C108.611 349.992 107.283 350.792 107.283 352.664ZM113.33 357H111.714V348.52H113.218V349.928C113.794 348.952 114.706 348.36 115.874 348.36C117.122 348.36 118.066 349 118.45 350.12C119.042 349.032 120.018 348.36 121.314 348.36C123.058 348.36 124.178 349.496 124.178 351.512V357H122.562V352.024C122.562 350.616 121.938 349.784 120.754 349.784C119.65 349.784 118.754 350.712 118.754 352.136V357H117.138V352.024C117.138 350.616 116.514 349.784 115.33 349.784C114.21 349.784 113.33 350.712 113.33 352.136V357ZM131.475 357V355.688C130.947 356.632 130.003 357.16 128.755 357.16C126.995 357.16 125.843 356.152 125.843 354.6C125.843 352.936 127.171 352.072 129.699 352.072C130.195 352.072 130.595 352.088 131.283 352.168V351.544C131.283 350.328 130.627 349.64 129.507 349.64C128.323 349.64 127.603 350.344 127.555 351.528H126.083C126.163 349.624 127.523 348.36 129.507 348.36C131.603 348.36 132.819 349.544 132.819 351.56V357H131.475ZM127.379 354.552C127.379 355.432 128.035 356.008 129.075 356.008C130.435 356.008 131.283 355.16 131.283 353.864V353.176C130.659 353.096 130.211 353.08 129.795 353.08C128.179 353.08 127.379 353.56 127.379 354.552ZM136.595 352.216V357H134.979V348.52H136.483V349.928C137.059 348.984 138.019 348.36 139.187 348.36C140.931 348.36 142.083 349.48 142.083 351.512V357H140.467V352.056C140.467 350.6 139.827 349.784 138.627 349.784C137.523 349.784 136.595 350.712 136.595 352.216ZM147.573 357.176C145.253 357.176 143.621 355.352 143.621 352.76C143.621 350.2 145.285 348.36 147.573 348.36C149.669 348.36 151.189 349.752 151.493 351.96H149.797C149.621 350.6 148.773 349.784 147.589 349.784C146.197 349.784 145.285 350.968 145.285 352.76C145.285 354.568 146.197 355.736 147.589 355.736C148.789 355.736 149.621 354.936 149.813 353.56H151.493C151.205 355.8 149.701 357.176 147.573 357.176ZM156.53 357.16C154.082 357.16 152.434 355.384 152.434 352.712C152.434 350.2 154.146 348.36 156.482 348.36C159.01 348.36 160.69 350.408 160.402 353.16H154.082C154.21 354.888 155.074 355.896 156.498 355.896C157.698 355.896 158.53 355.24 158.802 354.136H160.402C159.986 356.024 158.53 357.16 156.53 357.16ZM156.45 349.576C155.154 349.576 154.274 350.504 154.098 352.088H158.69C158.61 350.52 157.762 349.576 156.45 349.576Z" fill="#121212"/>
<path d="M66.3537 387H65.0337V378.384H66.3537V381.984H70.7217V378.384H72.0417V387H70.7217V383.136H66.3537V387ZM75.2965 379.164C75.2965 379.62 74.9365 379.968 74.4205 379.968C73.9045 379.968 73.5325 379.62 73.5325 379.164C73.5325 378.696 73.9045 378.36 74.4205 378.36C74.9365 378.36 75.2965 378.696 75.2965 379.164ZM75.0325 387H73.8205V380.64H75.0325V387ZM79.259 389.448C77.591 389.448 76.511 388.56 76.439 387.12H77.615C77.687 388.008 78.263 388.488 79.247 388.488C80.339 388.488 80.915 387.9 80.915 386.808V385.656C80.555 386.424 79.835 386.868 78.971 386.868C77.387 386.868 76.259 385.56 76.259 383.688C76.259 381.792 77.339 380.52 78.935 380.52C79.847 380.52 80.567 380.964 80.999 381.768V380.64H82.127V386.784C82.127 388.452 81.059 389.448 79.259 389.448ZM77.483 383.688C77.483 385.008 78.131 385.812 79.187 385.812C80.219 385.812 80.915 384.984 80.915 383.724C80.915 382.404 80.231 381.564 79.187 381.564C78.143 381.564 77.483 382.38 77.483 383.688ZM85.0168 383.412V387H83.8048V378.384H85.0168V381.66C85.4368 380.976 86.0848 380.52 86.9608 380.52C88.2688 380.52 89.1328 381.36 89.1328 382.884V387H87.9208V383.292C87.9208 382.2 87.4408 381.588 86.5408 381.588C85.7128 381.588 85.0168 382.284 85.0168 383.412Z" fill="#353535"/>
<path d="M405.046 386.09C403.696 386.09 402.696 385.12 402.696 383.88C402.696 383 403.056 382.47 403.586 381.81L405.626 379.24H406.416L404.386 381.81C404.666 381.71 404.936 381.66 405.186 381.66C406.446 381.66 407.406 382.53 407.406 383.86C407.406 385.12 406.406 386.09 405.046 386.09ZM405.056 385.51C405.986 385.51 406.686 384.82 406.686 383.88C406.686 382.87 405.986 382.2 405.056 382.2C404.116 382.2 403.416 382.78 403.416 383.86C403.416 384.82 404.116 385.51 405.056 385.51ZM410.406 386.1C409.176 386.1 408.236 385.27 408.196 384.12H408.876C408.936 384.95 409.556 385.48 410.406 385.48C411.436 385.48 412.026 384.84 412.026 383.89C412.026 383.04 411.386 382.36 410.426 382.36C409.776 382.36 409.276 382.64 408.946 383.16L408.406 383L408.996 379.24H412.356V379.85H409.496L409.126 382.29C409.536 381.92 409.996 381.76 410.516 381.76C411.896 381.76 412.736 382.72 412.736 383.88C412.736 385.15 411.856 386.1 410.406 386.1ZM415.526 383.38C414.326 383.38 413.506 382.44 413.506 381.28C413.506 380.12 414.326 379.18 415.526 379.18C416.736 379.18 417.556 380.12 417.556 381.28C417.556 382.44 416.736 383.38 415.526 383.38ZM416.766 386H416.176L419.976 379.24H420.576L416.766 386ZM415.526 382.87C416.306 382.87 416.946 382.29 416.946 381.28C416.946 380.26 416.306 379.69 415.526 379.69C414.756 379.69 414.106 380.26 414.106 381.28C414.106 382.29 414.756 382.87 415.526 382.87ZM421.296 386.08C420.086 386.08 419.266 385.15 419.266 383.98C419.266 382.82 420.086 381.88 421.296 381.88C422.506 381.88 423.326 382.82 423.326 383.98C423.326 385.15 422.506 386.08 421.296 386.08ZM421.296 385.57C422.066 385.57 422.716 384.99 422.716 383.98C422.716 382.96 422.066 382.4 421.296 382.4C420.526 382.4 419.876 382.96 419.876 383.98C419.876 384.99 420.526 385.57 421.296 385.57Z" fill="#353535"/>
<g clip-path="url(#clip0_30_26)">
<rect width="360" height="8" transform="translate(64 394)" fill="#F2F2F2"/>
<rect x="64" y="394" width="182" height="14" fill="#13AEFB"/>
</g>
<path d="M71.0124 427L70.2324 424.864H66.5124L65.7204 427H64.3884L67.6884 418.384H69.1404L72.4164 427H71.0124ZM68.3844 419.824L66.9084 423.796H69.8364L68.3844 419.824ZM78.3075 420.64L75.9195 427H74.5995L72.2115 420.64H73.5195L75.2835 425.608L77.0715 420.64H78.3075ZM81.5849 427.12C79.7489 427.12 78.5129 425.788 78.5129 423.784C78.5129 421.9 79.7969 420.52 81.5489 420.52C83.4449 420.52 84.7049 422.056 84.4889 424.12H79.7489C79.8449 425.416 80.4929 426.172 81.5609 426.172C82.4609 426.172 83.0849 425.68 83.2889 424.852H84.4889C84.1769 426.268 83.0849 427.12 81.5849 427.12ZM81.5249 421.432C80.5529 421.432 79.8929 422.128 79.7609 423.316H83.2049C83.1449 422.14 82.5089 421.432 81.5249 421.432ZM86.9895 423.748V427H85.7775V420.64H86.9055V421.984C87.3495 421.108 88.3095 420.556 89.3535 420.556V421.816C87.9855 421.744 86.9895 422.344 86.9895 423.748ZM94.1647 427V426.016C93.7687 426.724 93.0607 427.12 92.1247 427.12C90.8047 427.12 89.9407 426.364 89.9407 425.2C89.9407 423.952 90.9367 423.304 92.8327 423.304C93.2047 423.304 93.5047 423.316 94.0207 423.376V422.908C94.0207 421.996 93.5287 421.48 92.6887 421.48C91.8007 421.48 91.2607 422.008 91.2247 422.896H90.1207C90.1807 421.468 91.2007 420.52 92.6887 420.52C94.2607 420.52 95.1727 421.408 95.1727 422.92V427H94.1647ZM91.0927 425.164C91.0927 425.824 91.5847 426.256 92.3647 426.256C93.3847 426.256 94.0207 425.62 94.0207 424.648V424.132C93.5527 424.072 93.2167 424.06 92.9047 424.06C91.6927 424.06 91.0927 424.42 91.0927 425.164ZM99.3371 429.448C97.6691 429.448 96.5891 428.56 96.5171 427.12H97.6931C97.7651 428.008 98.3411 428.488 99.3251 428.488C100.417 428.488 100.993 427.9 100.993 426.808V425.656C100.633 426.424 99.9131 426.868 99.0491 426.868C97.4651 426.868 96.3371 425.56 96.3371 423.688C96.3371 421.792 97.4171 420.52 99.0131 420.52C99.9251 420.52 100.645 420.964 101.077 421.768V420.64H102.205V426.784C102.205 428.452 101.137 429.448 99.3371 429.448ZM97.5611 423.688C97.5611 425.008 98.2091 425.812 99.2651 425.812C100.297 425.812 100.993 424.984 100.993 423.724C100.993 422.404 100.309 421.564 99.2651 421.564C98.2211 421.564 97.5611 422.38 97.5611 423.688ZM106.499 427.12C104.663 427.12 103.427 425.788 103.427 423.784C103.427 421.9 104.711 420.52 106.463 420.52C108.359 420.52 109.619 422.056 109.403 424.12H104.663C104.759 425.416 105.407 426.172 106.475 426.172C107.375 426.172 107.999 425.68 108.203 424.852H109.403C109.091 426.268 107.999 427.12 106.499 427.12ZM106.439 421.432C105.467 421.432 104.807 422.128 104.675 423.316H108.119C108.059 422.14 107.423 421.432 106.439 421.432Z" fill="#353535"/>
<path d="M406.868 425.38V426H402.788V425.6L404.948 423.16C405.768 422.23 406.068 421.73 406.068 421.08C406.068 420.32 405.508 419.76 404.718 419.76C403.898 419.76 403.318 420.33 403.318 421.17H402.638C402.638 419.99 403.508 419.14 404.748 419.14C405.928 419.14 406.798 419.93 406.798 421.02C406.798 421.75 406.508 422.3 405.468 423.46L403.818 425.38H406.868ZM412.647 424.15C412.647 425.32 411.667 426.09 410.277 426.09C408.877 426.09 407.907 425.32 407.907 424.15C407.907 423.27 408.507 422.71 409.277 422.48C408.667 422.25 408.187 421.68 408.187 420.95C408.187 419.87 409.097 419.14 410.277 419.14C411.457 419.14 412.357 419.87 412.357 420.95C412.357 421.68 411.877 422.25 411.277 422.48C412.037 422.71 412.647 423.27 412.647 424.15ZM408.907 420.97C408.907 421.75 409.467 422.22 410.277 422.22C411.077 422.22 411.647 421.75 411.647 420.97C411.647 420.19 411.077 419.71 410.277 419.71C409.467 419.71 408.907 420.19 408.907 420.97ZM408.627 424.13C408.627 425 409.317 425.52 410.277 425.52C411.227 425.52 411.927 425 411.927 424.13C411.927 423.27 411.227 422.79 410.277 422.79C409.317 422.79 408.627 423.27 408.627 424.13ZM415.614 423.38C414.414 423.38 413.594 422.44 413.594 421.28C413.594 420.12 414.414 419.18 415.614 419.18C416.824 419.18 417.644 420.12 417.644 421.28C417.644 422.44 416.824 423.38 415.614 423.38ZM416.854 426H416.264L420.064 419.24H420.664L416.854 426ZM415.614 422.87C416.394 422.87 417.034 422.29 417.034 421.28C417.034 420.26 416.394 419.69 415.614 419.69C414.844 419.69 414.194 420.26 414.194 421.28C414.194 422.29 414.844 422.87 415.614 422.87ZM421.384 426.08C420.174 426.08 419.354 425.15 419.354 423.98C419.354 422.82 420.174 421.88 421.384 421.88C422.594 421.88 423.414 422.82 423.414 423.98C423.414 425.15 422.594 426.08 421.384 426.08ZM421.384 425.57C422.154 425.57 422.804 424.99 422.804 423.98C422.804 422.96 422.154 422.4 421.384 422.4C420.614 422.4 419.964 422.96 419.964 423.98C419.964 424.99 420.614 425.57 421.384 425.57Z" fill="#353535"/>
<g clip-path="url(#clip1_30_26)">
<rect width="360" height="8" transform="translate(64 434)" fill="#F2F2F2"/>
<rect x="64" y="434" width="182" height="14" fill="#13AEFB"/>
</g>
<path d="M70.3943 467H65.1743V458.384H66.4943V465.812H70.3943V467ZM74.0821 467.12C72.2821 467.12 70.9621 465.704 70.9621 463.82C70.9621 461.936 72.2821 460.52 74.0821 460.52C75.8821 460.52 77.2021 461.936 77.2021 463.82C77.2021 465.704 75.8821 467.12 74.0821 467.12ZM74.0821 466.052C75.1261 466.052 75.9541 465.212 75.9541 463.82C75.9541 462.428 75.1261 461.6 74.0821 461.6C73.0381 461.6 72.2221 462.428 72.2221 463.82C72.2221 465.212 73.0381 466.052 74.0821 466.052ZM83.553 467L82.113 462.272L80.661 467H79.437L77.601 460.64H78.789L80.073 465.272L81.513 460.64H82.713L84.129 465.284L85.413 460.64H86.613L84.765 467H83.553Z" fill="#353535"/>
<path d="M412.905 459.64L410.205 466H409.455L412.125 459.86H408.495V459.24H412.905V459.64ZM415.548 463.38C414.348 463.38 413.528 462.44 413.528 461.28C413.528 460.12 414.348 459.18 415.548 459.18C416.758 459.18 417.578 460.12 417.578 461.28C417.578 462.44 416.758 463.38 415.548 463.38ZM416.788 466H416.198L419.998 459.24H420.598L416.788 466ZM415.548 462.87C416.328 462.87 416.968 462.29 416.968 461.28C416.968 460.26 416.328 459.69 415.548 459.69C414.778 459.69 414.128 460.26 414.128 461.28C414.128 462.29 414.778 462.87 415.548 462.87ZM421.318 466.08C420.108 466.08 419.288 465.15 419.288 463.98C419.288 462.82 420.108 461.88 421.318 461.88C422.528 461.88 423.348 462.82 423.348 463.98C423.348 465.15 422.528 466.08 421.318 466.08ZM421.318 465.57C422.088 465.57 422.738 464.99 422.738 463.98C422.738 462.96 422.088 462.4 421.318 462.4C420.548 462.4 419.898 462.96 419.898 463.98C419.898 464.99 420.548 465.57 421.318 465.57Z" fill="#353535"/>
<g clip-path="url(#clip2_30_26)">
<rect width="360" height="8" transform="translate(64 474)" fill="#F2F2F2"/>
<rect x="64" y="474" width="39" height="14" fill="#13AEFB"/>
</g>
</g>
<defs>
<filter id="filter0_d_30_26" x="175.957" y="22.7339" width="428.086" height="299.794" filterUnits="userSpaceOnUse" color-interpolation-filters="sRGB">
<feFlood flood-opacity="0" result="BackgroundImageFix"/>
<feColorMatrix in="SourceAlpha" type="matrix" values="0 0 0 0 0 0 0 0 0 0 0 0 0 0 0 0 0 0 127 0" result="hardAlpha"/>
<feMorphology radius="1.75536" operator="erode" in="SourceAlpha" result="effect1_dropShadow_30_26"/>
<feOffset dy="8.77682"/>
<feGaussianBlur stdDeviation="7.89914"/>
<feComposite in2="hardAlpha" operator="out"/>
<feColorMatrix type="matrix" values="0 0 0 0 0.0627451 0 0 0 0 0.0980392 0 0 0 0 0.156863 0 0 0 0.07 0"/>
<feBlend mode="normal" in2="BackgroundImageFix" result="effect1_dropShadow_30_26"/>
<feBlend mode="normal" in="SourceGraphic" in2="effect1_dropShadow_30_26" result="shape"/>
</filter>
<filter id="filter1_d_30_26" x="24" y="310" width="440" height="222" filterUnits="userSpaceOnUse" color-interpolation-filters="sRGB">
<feFlood flood-opacity="0" result="BackgroundImageFix"/>
<feColorMatrix in="SourceAlpha" type="matrix" values="0 0 0 0 0 0 0 0 0 0 0 0 0 0 0 0 0 0 127 0" result="hardAlpha"/>
<feMorphology radius="2" operator="erode" in="SourceAlpha" result="effect1_dropShadow_30_26"/>
<feOffset dy="10"/>
<feGaussianBlur stdDeviation="9"/>
<feComposite in2="hardAlpha" operator="out"/>
<feColorMatrix type="matrix" values="0 0 0 0 0.0627451 0 0 0 0 0.0980392 0 0 0 0 0.156863 0 0 0 0.07 0"/>
<feBlend mode="normal" in2="BackgroundImageFix" result="effect1_dropShadow_30_26"/>
<feBlend mode="normal" in="SourceGraphic" in2="effect1_dropShadow_30_26" result="shape"/>
</filter>
<linearGradient id="paint0_linear_30_26" x1="404.923" y1="159.329" x2="403.803" y2="267.882" gradientUnits="userSpaceOnUse">
<stop stop-color="#B5E6FF"/>
<stop offset="1" stop-color="#B5E6FF" stop-opacity="0.07"/>
</linearGradient>
<clipPath id="clip0_30_26">
<rect width="360" height="8" fill="white" transform="translate(64 394)"/>
</clipPath>
<clipPath id="clip1_30_26">
<rect width="360" height="8" fill="white" transform="translate(64 434)"/>
</clipPath>
<clipPath id="clip2_30_26">
<rect width="360" height="8" fill="white" transform="translate(64 474)"/>
</clipPath>
</defs>
</svg>
