<svg width="237" height="166" viewBox="0 0 237 166" fill="none" xmlns="http://www.w3.org/2000/svg">
<g filter="url(#filter0_d_166_1369)">
<rect x="7.7749" y="3.44043" width="220.579" height="149.774" rx="1.93598" fill="white" shape-rendering="crispEdges"/>
<path d="M20.2885 21.1201H19.4367V16.3266H17.6246V15.56H22.1006V16.3266H20.2885V21.1201ZM23.9661 21.1976C22.8045 21.1976 21.9527 20.2838 21.9527 19.068C21.9527 17.8522 22.8045 16.9384 23.9661 16.9384C25.1277 16.9384 25.9795 17.8522 25.9795 19.068C25.9795 20.2838 25.1277 21.1976 23.9661 21.1976ZM23.9661 20.5083C24.6398 20.5083 25.1742 19.9663 25.1742 19.068C25.1742 18.1697 24.6398 17.6354 23.9661 17.6354C23.2924 17.6354 22.7658 18.1697 22.7658 19.068C22.7658 19.9663 23.2924 20.5083 23.9661 20.5083ZM29.0166 20.3612V21.0504C28.7766 21.1588 28.5675 21.1976 28.3197 21.1976C27.5608 21.1976 27.0342 20.7871 27.0342 19.8811V17.6818H26.1282V17.0158H27.0342V15.8H27.8163V17.0158H29.0554V17.6818H27.8163V19.703C27.8163 20.2683 28.0874 20.4696 28.5056 20.4696C28.6914 20.4696 28.854 20.4387 29.0166 20.3612ZM32.2876 21.1201V20.4851C32.0321 20.942 31.5752 21.1976 30.9711 21.1976C30.1193 21.1976 29.5617 20.7097 29.5617 19.9585C29.5617 19.1532 30.2045 18.735 31.428 18.735C31.6681 18.735 31.8617 18.7427 32.1947 18.7815V18.4794C32.1947 17.8909 31.8772 17.5579 31.3351 17.5579C30.7621 17.5579 30.4136 17.8986 30.3903 18.4717H29.6779C29.7166 17.5502 30.3749 16.9384 31.3351 16.9384C32.3496 16.9384 32.9381 17.5114 32.9381 18.4872V21.1201H32.2876ZM30.3052 19.9353C30.3052 20.3612 30.6227 20.64 31.126 20.64C31.7843 20.64 32.1947 20.2296 32.1947 19.6023V19.2693C31.8927 19.2306 31.6758 19.2229 31.4745 19.2229C30.6924 19.2229 30.3052 19.4552 30.3052 19.9353ZM34.7737 21.1201H33.9838V15.56H34.7737V21.1201ZM38.3915 21.1201H37.5396V15.56H39.615C40.8927 15.56 41.6594 16.1872 41.6594 17.2946C41.6594 18.0922 41.156 18.704 40.3119 18.9054L41.822 21.1201H40.7998L39.4137 19.0293H38.3915V21.1201ZM38.3915 16.2724V18.3168H39.5608C40.3507 18.3168 40.7998 17.9683 40.7998 17.2946C40.7998 16.6286 40.3507 16.2724 39.5608 16.2724H38.3915ZM44.0739 21.1976C42.889 21.1976 42.0914 20.338 42.0914 19.0447C42.0914 17.8289 42.92 16.9384 44.0506 16.9384C45.2742 16.9384 46.0873 17.9296 45.9479 19.2616H42.889C42.951 20.0979 43.3692 20.5858 44.0584 20.5858C44.6392 20.5858 45.0418 20.2683 45.1735 19.734H45.9479C45.7465 20.6477 45.0418 21.1976 44.0739 21.1976ZM44.0351 17.5269C43.4079 17.5269 42.982 17.9761 42.8968 18.7427H45.1193C45.0806 17.9838 44.6701 17.5269 44.0351 17.5269ZM50.0582 17.0158L48.5172 21.1201H47.6653L46.1243 17.0158H46.9684L48.1067 20.2218L49.2606 17.0158H50.0582ZM52.1732 21.1976C50.9884 21.1976 50.1908 20.338 50.1908 19.0447C50.1908 17.8289 51.0194 16.9384 52.15 16.9384C53.3735 16.9384 54.1866 17.9296 54.0472 19.2616H50.9884C51.0503 20.0979 51.4685 20.5858 52.1577 20.5858C52.7385 20.5858 53.1412 20.2683 53.2729 19.734H54.0472C53.8459 20.6477 53.1412 21.1976 52.1732 21.1976ZM52.1345 17.5269C51.5072 17.5269 51.0813 17.9761 50.9961 18.7427H53.2186C53.1799 17.9838 52.7695 17.5269 52.1345 17.5269ZM55.6609 18.8047V21.1201H54.8788V17.0158H55.6067V17.6973C55.8855 17.2404 56.3502 16.9384 56.9155 16.9384C57.7595 16.9384 58.3171 17.4805 58.3171 18.464V21.1201H57.535V18.7272C57.535 18.0225 57.2252 17.6276 56.6444 17.6276C56.1101 17.6276 55.6609 18.0768 55.6609 18.8047ZM61.919 19.4319V17.0158H62.7011V21.1201H61.9732V20.4696C61.7564 20.8955 61.2763 21.1976 60.7187 21.1976C59.8901 21.1976 59.317 20.7097 59.317 19.6565V17.0158H60.0992V19.5016C60.0992 20.2141 60.4554 20.5083 60.9665 20.5083C61.4931 20.5083 61.919 20.0747 61.919 19.4319ZM65.4755 21.1976C64.2907 21.1976 63.4931 20.338 63.4931 19.0447C63.4931 17.8289 64.3217 16.9384 65.4523 16.9384C66.6758 16.9384 67.4889 17.9296 67.3495 19.2616H64.2907C64.3527 20.0979 64.7708 20.5858 65.46 20.5858C66.0408 20.5858 66.4435 20.2683 66.5752 19.734H67.3495C67.1482 20.6477 66.4435 21.1976 65.4755 21.1976ZM65.4368 17.5269C64.8095 17.5269 64.3836 17.9761 64.2984 18.7427H66.5209C66.4822 17.9838 66.0718 17.5269 65.4368 17.5269ZM73.2068 17.0158L71.1547 22.6147H70.3028L70.8914 21.0659L69.2729 17.0158H70.117L71.3095 20.1444L72.4169 17.0158H73.2068ZM75.3218 21.1976C74.137 21.1976 73.3394 20.338 73.3394 19.0447C73.3394 17.8289 74.168 16.9384 75.2986 16.9384C76.5221 16.9384 77.3352 17.9296 77.1958 19.2616H74.137C74.1989 20.0979 74.6171 20.5858 75.3063 20.5858C75.8871 20.5858 76.2898 20.2683 76.4214 19.734H77.1958C76.9945 20.6477 76.2898 21.1976 75.3218 21.1976ZM75.2831 17.5269C74.6558 17.5269 74.2299 17.9761 74.1447 18.7427H76.3672C76.3285 17.9838 75.9181 17.5269 75.2831 17.5269ZM80.5132 21.1201V20.4851C80.2576 20.942 79.8008 21.1976 79.1967 21.1976C78.3449 21.1976 77.7873 20.7097 77.7873 19.9585C77.7873 19.1532 78.4301 18.735 79.6536 18.735C79.8937 18.735 80.0873 18.7427 80.4203 18.7815V18.4794C80.4203 17.8909 80.1028 17.5579 79.5607 17.5579C78.9876 17.5579 78.6392 17.8986 78.6159 18.4717H77.9035C77.9422 17.5502 78.6004 16.9384 79.5607 16.9384C80.5751 16.9384 81.1637 17.5114 81.1637 18.4872V21.1201H80.5132ZM78.5307 19.9353C78.5307 20.3612 78.8482 20.64 79.3516 20.64C80.0098 20.64 80.4203 20.2296 80.4203 19.6023V19.2693C80.1183 19.2306 79.9014 19.2229 79.7001 19.2229C78.9179 19.2229 78.5307 19.4552 78.5307 19.9353ZM82.9915 19.0215V21.1201H82.2094V17.0158H82.9373V17.8832C83.2239 17.3179 83.8434 16.9616 84.5171 16.9616V17.7747C83.6343 17.7283 82.9915 18.1155 82.9915 19.0215ZM85.9259 21.1201H85.1361V15.56H85.9259V21.1201ZM90.4189 17.0158L88.3667 22.6147H87.5149L88.1034 21.0659L86.485 17.0158H87.3291L88.5216 20.1444L89.629 17.0158H90.4189Z" fill="#121212"/>
<path d="M18.6961 30.0557H18.3331V26.5806H18.6961V30.0557ZM19.7962 28.5698V30.0557H19.4574V27.505H19.772V27.9842C19.9366 27.6696 20.2463 27.4566 20.6142 27.4566C21.1466 27.4566 21.4902 27.7954 21.4902 28.4004V30.0557H21.1514V28.5166C21.1514 28.0277 20.9288 27.7518 20.5125 27.7518C20.1157 27.7518 19.7962 28.0955 19.7962 28.5698ZM22.0148 28.7779C22.0148 27.9938 22.4504 27.4566 23.1376 27.4566C23.52 27.4566 23.8443 27.6744 24.0137 28.0374V26.5806H24.3525V30.0557H24.0379V29.5184C23.8588 29.8911 23.5297 30.1041 23.1376 30.1041C22.4504 30.1041 22.0148 29.562 22.0148 28.7779ZM22.3584 28.7779C22.3584 29.4265 22.6875 29.8088 23.186 29.8088C23.6797 29.8088 24.0185 29.4071 24.0185 28.7682C24.0185 28.1245 23.67 27.7518 23.186 27.7518C22.6875 27.7518 22.3584 28.1294 22.3584 28.7779ZM25.5271 26.9145C25.5271 27.0646 25.4158 27.1711 25.2513 27.1711C25.0915 27.1711 24.9802 27.0646 24.9802 26.9145C24.9802 26.7693 25.0915 26.6629 25.2513 26.6629C25.4158 26.6629 25.5271 26.7693 25.5271 26.9145ZM25.4255 30.0557H25.0867V27.505H25.4255V30.0557ZM27.1131 30.1089C26.4403 30.1089 25.9709 29.562 25.9709 28.7779C25.9709 28.0035 26.4452 27.4566 27.1131 27.4566C27.7084 27.4566 28.1343 27.8535 28.236 28.4924H27.8923C27.8149 28.0277 27.5245 27.7518 27.1131 27.7518C26.6388 27.7518 26.3145 28.1681 26.3145 28.7779C26.3145 29.3974 26.6388 29.8137 27.1131 29.8137C27.5293 29.8137 27.8149 29.5426 27.8923 29.0683H28.236C28.144 29.7169 27.7132 30.1089 27.1131 30.1089ZM30.351 30.0557V29.591C30.2009 29.9105 29.8912 30.1041 29.4943 30.1041C28.9668 30.1041 28.6231 29.8088 28.6231 29.349C28.6231 28.8505 29.02 28.5892 29.7944 28.5892C29.9493 28.5892 30.0654 28.5988 30.3171 28.6182V28.4052C30.3171 27.9793 30.0896 27.7276 29.7024 27.7276C29.2862 27.7276 29.0248 27.9842 29.02 28.4004H28.7102C28.7248 27.8341 29.1168 27.4566 29.6976 27.4566C30.2929 27.4566 30.6414 27.8051 30.6414 28.3956V30.0557H30.351ZM28.9474 29.3394C28.9474 29.6491 29.1846 29.8572 29.5427 29.8572C30.017 29.8572 30.3171 29.5475 30.3171 29.0683V28.8408C30.0993 28.8215 29.9493 28.8166 29.8089 28.8166C29.2281 28.8166 28.9474 28.986 28.9474 29.3394ZM32.6515 29.7314V30.0315C32.5208 30.0847 32.4095 30.1041 32.2837 30.1041C31.8626 30.1041 31.5383 29.8863 31.5383 29.3345V27.7906H30.9382V27.505H31.5383V26.75H31.8771V27.505H32.6757V27.7906H31.8771V29.2619C31.8771 29.6588 32.0707 29.7943 32.3514 29.7943C32.4579 29.7943 32.545 29.7749 32.6515 29.7314ZM34.1288 30.1041C33.427 30.1041 32.9188 29.5475 32.9188 28.7779C32.9188 28.0132 33.427 27.4614 34.1288 27.4614C34.8355 27.4614 35.3437 28.0132 35.3437 28.7779C35.3437 29.5475 34.8355 30.1041 34.1288 30.1041ZM34.1288 29.8088C34.6273 29.8088 35 29.412 35 28.7779C35 28.1536 34.6273 27.7567 34.1288 27.7567C33.6352 27.7567 33.2625 28.1536 33.2625 28.7779C33.2625 29.412 33.6352 29.8088 34.1288 29.8088ZM36.2303 28.6908V30.0557H35.8915V27.505H36.2061V28.0858C36.3803 27.7083 36.7579 27.4663 37.1789 27.4663V27.8196C36.6417 27.8002 36.2303 28.1342 36.2303 28.6908ZM39.5 29.3442C39.5 29.8137 39.1225 30.1041 38.4933 30.1041C37.8593 30.1041 37.4721 29.7846 37.4237 29.2571H37.7479C37.7721 29.6201 38.0577 29.8475 38.4933 29.8475C38.9095 29.8475 39.1612 29.6878 39.1612 29.3974C39.1612 29.1458 39.016 29.0296 38.6288 28.9522L38.261 28.8796C37.777 28.7876 37.5205 28.5504 37.5205 28.1826C37.5205 27.7567 37.898 27.4566 38.4546 27.4566C39.0402 27.4566 39.4274 27.7712 39.4661 28.2794H39.1467C39.1128 27.9261 38.8563 27.718 38.4546 27.718C38.0964 27.718 37.8496 27.8874 37.8496 28.1536C37.8496 28.4052 38.0045 28.5262 38.382 28.5988L38.7643 28.6714C39.2725 28.7682 39.5 28.9812 39.5 29.3442ZM40.6501 27.8051C40.6501 27.9842 40.5243 28.11 40.3452 28.11C40.1709 28.11 40.0403 27.9842 40.0403 27.8051C40.0403 27.626 40.1709 27.4953 40.3452 27.4953C40.5243 27.4953 40.6501 27.626 40.6501 27.8051ZM40.6501 29.7749C40.6501 29.9492 40.5243 30.0799 40.3452 30.0799C40.1709 30.0799 40.0403 29.9492 40.0403 29.7749C40.0403 29.591 40.1709 29.4652 40.3452 29.4652C40.5243 29.4652 40.6501 29.591 40.6501 29.7749Z" fill="#353535"/>
<circle cx="45.3269" cy="28.5561" r="1.93598" fill="#FD6868"/>
<path d="M51.6606 30.0557H49.6762V26.5806H50.0392V29.7314H51.6606V30.0557ZM53.1168 30.1041C52.415 30.1041 51.9069 29.5475 51.9069 28.7779C51.9069 28.0132 52.415 27.4614 53.1168 27.4614C53.8235 27.4614 54.3317 28.0132 54.3317 28.7779C54.3317 29.5475 53.8235 30.1041 53.1168 30.1041ZM53.1168 29.8088C53.6154 29.8088 53.988 29.412 53.988 28.7779C53.988 28.1536 53.6154 27.7567 53.1168 27.7567C52.6232 27.7567 52.2505 28.1536 52.2505 28.7779C52.2505 29.412 52.6232 29.8088 53.1168 29.8088ZM56.9523 30.0557L56.2844 27.9551L55.6213 30.0557H55.2777L54.5323 27.505H54.8663L55.4567 29.5765L56.1198 27.505H56.4538L57.112 29.5813L57.7025 27.505H58.0413L57.2911 30.0557H56.9523Z" fill="#454545"/>
<circle cx="67.8786" cy="28.5561" r="1.93598" fill="#F2BD5B"/>
<path d="M74.649 30.0557L74.286 29.0925H72.6646L72.2968 30.0557H71.9386L73.2889 26.5806H73.6858L75.0313 30.0557H74.649ZM73.4777 26.9678L72.7759 28.7973H74.1698L73.4777 26.9678ZM77.3028 27.505L76.3203 30.0557H75.967L74.9942 27.505H75.3572L76.1557 29.6588L76.9543 27.505H77.3028ZM78.6226 30.1041C77.9063 30.1041 77.4319 29.5668 77.4319 28.7586C77.4319 28.0132 77.9256 27.4566 78.6032 27.4566C79.3292 27.4566 79.8035 28.0422 79.7454 28.8602H77.7707C77.7998 29.4652 78.1192 29.8379 78.6177 29.8379C79.0436 29.8379 79.3389 29.6007 79.4212 29.1942H79.7551C79.639 29.7604 79.2082 30.1041 78.6226 30.1041ZM78.5984 27.718C78.1386 27.718 77.8143 28.0713 77.7707 28.6279H79.3921C79.3631 28.0568 79.0678 27.718 78.5984 27.718ZM80.6442 28.6908V30.0557H80.3054V27.505H80.62V28.0858C80.7942 27.7083 81.1717 27.4663 81.5928 27.4663V27.8196C81.0556 27.8002 80.6442 28.1342 80.6442 28.6908ZM83.5751 30.0557V29.591C83.425 29.9105 83.1153 30.1041 82.7184 30.1041C82.1908 30.1041 81.8472 29.8088 81.8472 29.349C81.8472 28.8505 82.2441 28.5892 83.0185 28.5892C83.1733 28.5892 83.2895 28.5988 83.5412 28.6182V28.4052C83.5412 27.9793 83.3137 27.7276 82.9265 27.7276C82.5103 27.7276 82.2489 27.9842 82.2441 28.4004H81.9343C81.9488 27.8341 82.3409 27.4566 82.9217 27.4566C83.517 27.4566 83.8655 27.8051 83.8655 28.3956V30.0557H83.5751ZM82.1715 29.3394C82.1715 29.6491 82.4086 29.8572 82.7668 29.8572C83.2411 29.8572 83.5412 29.5475 83.5412 29.0683V28.8408C83.3234 28.8215 83.1733 28.8166 83.033 28.8166C82.4522 28.8166 82.1715 28.986 82.1715 29.3394ZM85.5413 31.043C84.8927 31.043 84.4862 30.7042 84.4571 30.1331H84.7814C84.8105 30.5493 85.0815 30.772 85.5364 30.772C86.0398 30.772 86.306 30.5058 86.306 30.0024V29.47C86.1511 29.8282 85.8414 30.0363 85.4638 30.0363C84.8201 30.0363 84.3894 29.5184 84.3894 28.744C84.3894 27.9696 84.8153 27.4566 85.459 27.4566C85.8414 27.4566 86.1608 27.6744 86.3254 28.0471V27.505H86.64V29.9976C86.64 30.6558 86.2382 31.043 85.5413 31.043ZM84.7282 28.744C84.7282 29.3684 85.0234 29.7459 85.5122 29.7459C85.9914 29.7459 86.3108 29.3587 86.3108 28.7682C86.3108 28.1439 85.9962 27.747 85.5122 27.747C85.0282 27.747 84.7282 28.1245 84.7282 28.744ZM88.3781 30.1041C87.6618 30.1041 87.1875 29.5668 87.1875 28.7586C87.1875 28.0132 87.6811 27.4566 88.3587 27.4566C89.0847 27.4566 89.559 28.0422 89.501 28.8602H87.5263C87.5553 29.4652 87.8747 29.8379 88.3733 29.8379C88.7992 29.8379 89.0944 29.6007 89.1767 29.1942H89.5106C89.3945 29.7604 88.9637 30.1041 88.3781 30.1041ZM88.3539 27.718C87.8941 27.718 87.5698 28.0713 87.5263 28.6279H89.1477C89.1186 28.0568 88.8234 27.718 88.3539 27.718Z" fill="#454545"/>
<circle cx="99.4306" cy="28.5561" r="1.93598" fill="#67C788"/>
<path d="M104.507 30.0557H104.144V26.5806H104.507V28.1052H106.482V26.5806H106.845V30.0557H106.482V28.4198H104.507V30.0557ZM108.044 26.9145C108.044 27.0646 107.933 27.1711 107.768 27.1711C107.608 27.1711 107.497 27.0646 107.497 26.9145C107.497 26.7693 107.608 26.6629 107.768 26.6629C107.933 26.6629 108.044 26.7693 108.044 26.9145ZM107.942 30.0557H107.603V27.505H107.942V30.0557ZM109.64 31.043C108.991 31.043 108.584 30.7042 108.555 30.1331H108.88C108.909 30.5493 109.18 30.772 109.635 30.772C110.138 30.772 110.404 30.5058 110.404 30.0024V29.47C110.249 29.8282 109.94 30.0363 109.562 30.0363C108.918 30.0363 108.488 29.5184 108.488 28.744C108.488 27.9696 108.914 27.4566 109.557 27.4566C109.94 27.4566 110.259 27.6744 110.424 28.0471V27.505H110.738V29.9976C110.738 30.6558 110.337 31.043 109.64 31.043ZM108.826 28.744C108.826 29.3684 109.122 29.7459 109.611 29.7459C110.09 29.7459 110.409 29.3587 110.409 28.7682C110.409 28.1439 110.095 27.747 109.611 27.747C109.127 27.747 108.826 28.1245 108.826 28.744ZM111.813 28.5698V30.0557H111.475V26.5806H111.813V27.9745C111.973 27.6696 112.263 27.4566 112.631 27.4566C113.164 27.4566 113.507 27.7954 113.507 28.4004V30.0557H113.168V28.5166C113.168 28.0277 112.946 27.7518 112.53 27.7518C112.133 27.7518 111.813 28.0955 111.813 28.5698Z" fill="#454545"/>
<path d="M40.1494 142.295V142.535H38.5696V142.38L39.406 141.436C39.7235 141.075 39.8396 140.882 39.8396 140.63C39.8396 140.336 39.6228 140.119 39.3169 140.119C38.9994 140.119 38.7749 140.34 38.7749 140.665H38.5116C38.5116 140.208 38.8484 139.879 39.3285 139.879C39.7854 139.879 40.1223 140.185 40.1223 140.607C40.1223 140.89 40.01 141.103 39.6073 141.552L38.9685 142.295H40.1494ZM40.5317 141.23C40.5317 140.363 40.8647 139.879 41.461 139.879C42.0534 139.879 42.3903 140.363 42.3903 141.23C42.3903 142.098 42.0612 142.574 41.461 142.574C40.857 142.574 40.5317 142.098 40.5317 141.23ZM40.8105 141.23C40.8105 141.95 41.0312 142.334 41.461 142.334C41.883 142.334 42.1115 141.954 42.1115 141.23C42.1115 140.502 41.883 140.119 41.461 140.119C41.039 140.119 40.8105 140.499 40.8105 141.23ZM44.3806 142.295V142.535H42.8008V142.38L43.6372 141.436C43.9547 141.075 44.0708 140.882 44.0708 140.63C44.0708 140.336 43.854 140.119 43.5481 140.119C43.2306 140.119 43.006 140.34 43.006 140.665H42.7427C42.7427 140.208 43.0796 139.879 43.5597 139.879C44.0166 139.879 44.3535 140.185 44.3535 140.607C44.3535 140.89 44.2412 141.103 43.8385 141.552L43.1996 142.295H44.3806ZM44.7629 141.23C44.7629 140.363 45.0959 139.879 45.6922 139.879C46.2846 139.879 46.6214 140.363 46.6214 141.23C46.6214 142.098 46.2923 142.574 45.6922 142.574C45.0882 142.574 44.7629 142.098 44.7629 141.23ZM45.0417 141.23C45.0417 141.95 45.2624 142.334 45.6922 142.334C46.1142 142.334 46.3427 141.954 46.3427 141.23C46.3427 140.502 46.1142 140.119 45.6922 140.119C45.2701 140.119 45.0417 140.499 45.0417 141.23Z" fill="#595959"/>
<path d="M74.8368 142.295V142.535H73.257V142.38L74.0934 141.436C74.4109 141.075 74.527 140.882 74.527 140.63C74.527 140.336 74.3102 140.119 74.0043 140.119C73.6868 140.119 73.4622 140.34 73.4622 140.665H73.1989C73.1989 140.208 73.5358 139.879 74.0159 139.879C74.4728 139.879 74.8097 140.185 74.8097 140.607C74.8097 140.89 74.6974 141.103 74.2947 141.552L73.6558 142.295H74.8368ZM75.2191 141.23C75.2191 140.363 75.5521 139.879 76.1484 139.879C76.7408 139.879 77.0777 140.363 77.0777 141.23C77.0777 142.098 76.7485 142.574 76.1484 142.574C75.5444 142.574 75.2191 142.098 75.2191 141.23ZM75.4979 141.23C75.4979 141.95 75.7186 142.334 76.1484 142.334C76.5704 142.334 76.7989 141.954 76.7989 141.23C76.7989 140.502 76.5704 140.119 76.1484 140.119C75.7263 140.119 75.4979 140.499 75.4979 141.23ZM79.068 142.295V142.535H77.4882V142.38L78.3245 141.436C78.642 141.075 78.7582 140.882 78.7582 140.63C78.7582 140.336 78.5414 140.119 78.2355 140.119C77.918 140.119 77.6934 140.34 77.6934 140.665H77.4301C77.4301 140.208 77.767 139.879 78.2471 139.879C78.704 139.879 79.0409 140.185 79.0409 140.607C79.0409 140.89 78.9286 141.103 78.5259 141.552L77.887 142.295H79.068ZM80.1047 142.535H79.8375V140.15H79.3225V139.918H80.1047V142.535Z" fill="#595959"/>
<path d="M108.592 142.295V142.535H107.013V142.38L107.849 141.436C108.166 141.075 108.283 140.882 108.283 140.63C108.283 140.336 108.066 140.119 107.76 140.119C107.442 140.119 107.218 140.34 107.218 140.665H106.955C106.955 140.208 107.291 139.879 107.771 139.879C108.228 139.879 108.565 140.185 108.565 140.607C108.565 140.89 108.453 141.103 108.05 141.552L107.411 142.295H108.592ZM108.975 141.23C108.975 140.363 109.308 139.879 109.904 139.879C110.496 139.879 110.833 140.363 110.833 141.23C110.833 142.098 110.504 142.574 109.904 142.574C109.3 142.574 108.975 142.098 108.975 141.23ZM109.253 141.23C109.253 141.95 109.474 142.334 109.904 142.334C110.326 142.334 110.554 141.954 110.554 141.23C110.554 140.502 110.326 140.119 109.904 140.119C109.482 140.119 109.253 140.499 109.253 141.23ZM112.824 142.295V142.535H111.244V142.38L112.08 141.436C112.398 141.075 112.514 140.882 112.514 140.63C112.514 140.336 112.297 140.119 111.991 140.119C111.674 140.119 111.449 140.34 111.449 140.665H111.186C111.186 140.208 111.523 139.879 112.003 139.879C112.46 139.879 112.796 140.185 112.796 140.607C112.796 140.89 112.684 141.103 112.281 141.552L111.643 142.295H112.824ZM114.801 142.295V142.535H113.221V142.38L114.058 141.436C114.375 141.075 114.491 140.882 114.491 140.63C114.491 140.336 114.275 140.119 113.969 140.119C113.651 140.119 113.427 140.34 113.427 140.665H113.163C113.163 140.208 113.5 139.879 113.98 139.879C114.437 139.879 114.774 140.185 114.774 140.607C114.774 140.89 114.662 141.103 114.259 141.552L113.62 142.295H114.801Z" fill="#595959"/>
<path d="M142.639 142.295V142.535H141.059V142.38L141.895 141.436C142.213 141.075 142.329 140.882 142.329 140.63C142.329 140.336 142.112 140.119 141.806 140.119C141.489 140.119 141.264 140.34 141.264 140.665H141.001C141.001 140.208 141.338 139.879 141.818 139.879C142.275 139.879 142.612 140.185 142.612 140.607C142.612 140.89 142.499 141.103 142.097 141.552L141.458 142.295H142.639ZM143.021 141.23C143.021 140.363 143.354 139.879 143.95 139.879C144.543 139.879 144.88 140.363 144.88 141.23C144.88 142.098 144.551 142.574 143.95 142.574C143.346 142.574 143.021 142.098 143.021 141.23ZM143.3 141.23C143.3 141.95 143.521 142.334 143.95 142.334C144.372 142.334 144.601 141.954 144.601 141.23C144.601 140.502 144.372 140.119 143.95 140.119C143.528 140.119 143.3 140.499 143.3 141.23ZM146.87 142.295V142.535H145.29V142.38L146.127 141.436C146.444 141.075 146.56 140.882 146.56 140.63C146.56 140.336 146.343 140.119 146.038 140.119C145.72 140.119 145.495 140.34 145.495 140.665H145.232C145.232 140.208 145.569 139.879 146.049 139.879C146.506 139.879 146.843 140.185 146.843 140.607C146.843 140.89 146.731 141.103 146.328 141.552L145.689 142.295H146.87ZM148.128 142.57C147.609 142.57 147.253 142.264 147.241 141.811H147.505C147.52 142.14 147.764 142.349 148.128 142.349C148.504 142.349 148.732 142.144 148.732 141.815C148.732 141.501 148.476 141.3 148.074 141.3H147.814V141.075H148.066C148.387 141.075 148.612 140.87 148.612 140.576C148.612 140.293 148.403 140.1 148.105 140.1C147.795 140.1 147.59 140.293 147.574 140.595H147.315C147.327 140.185 147.667 139.879 148.113 139.879C148.577 139.879 148.891 140.162 148.891 140.564C148.891 140.835 148.728 141.052 148.442 141.172C148.802 141.261 149.011 141.494 149.011 141.811C149.011 142.26 148.655 142.57 148.128 142.57Z" fill="#595959"/>
<path d="M176.852 142.295V142.535H175.272V142.38L176.108 141.436C176.426 141.075 176.542 140.882 176.542 140.63C176.542 140.336 176.325 140.119 176.019 140.119C175.702 140.119 175.477 140.34 175.477 140.665H175.214C175.214 140.208 175.551 139.879 176.031 139.879C176.488 139.879 176.825 140.185 176.825 140.607C176.825 140.89 176.712 141.103 176.31 141.552L175.671 142.295H176.852ZM177.234 141.23C177.234 140.363 177.567 139.879 178.163 139.879C178.756 139.879 179.093 140.363 179.093 141.23C179.093 142.098 178.763 142.574 178.163 142.574C177.559 142.574 177.234 142.098 177.234 141.23ZM177.513 141.23C177.513 141.95 177.733 142.334 178.163 142.334C178.585 142.334 178.814 141.954 178.814 141.23C178.814 140.502 178.585 140.119 178.163 140.119C177.741 140.119 177.513 140.499 177.513 141.23ZM181.083 142.295V142.535H179.503V142.38L180.339 141.436C180.657 141.075 180.773 140.882 180.773 140.63C180.773 140.336 180.556 140.119 180.25 140.119C179.933 140.119 179.708 140.34 179.708 140.665H179.445C179.445 140.208 179.782 139.879 180.262 139.879C180.719 139.879 181.056 140.185 181.056 140.607C181.056 140.89 180.943 141.103 180.541 141.552L179.902 142.295H181.083ZM183.171 141.912H182.819V142.535H182.552V141.912H181.278V141.73L182.629 139.918H182.819V141.676H183.171V141.912ZM181.592 141.676H182.552V140.359L181.592 141.676Z" fill="#595959"/>
<path d="M210.991 142.295V142.535H209.411V142.38L210.247 141.436C210.565 141.075 210.681 140.882 210.681 140.63C210.681 140.336 210.464 140.119 210.158 140.119C209.841 140.119 209.616 140.34 209.616 140.665H209.353C209.353 140.208 209.69 139.879 210.17 139.879C210.627 139.879 210.964 140.185 210.964 140.607C210.964 140.89 210.851 141.103 210.449 141.552L209.81 142.295H210.991ZM211.373 141.23C211.373 140.363 211.706 139.879 212.302 139.879C212.895 139.879 213.232 140.363 213.232 141.23C213.232 142.098 212.903 142.574 212.302 142.574C211.698 142.574 211.373 142.098 211.373 141.23ZM211.652 141.23C211.652 141.95 211.873 142.334 212.302 142.334C212.724 142.334 212.953 141.954 212.953 141.23C212.953 140.502 212.724 140.119 212.302 140.119C211.88 140.119 211.652 140.499 211.652 141.23ZM215.222 142.295V142.535H213.642V142.38L214.479 141.436C214.796 141.075 214.912 140.882 214.912 140.63C214.912 140.336 214.695 140.119 214.389 140.119C214.072 140.119 213.847 140.34 213.847 140.665H213.584C213.584 140.208 213.921 139.879 214.401 139.879C214.858 139.879 215.195 140.185 215.195 140.607C215.195 140.89 215.083 141.103 214.68 141.552L214.041 142.295H215.222ZM216.441 142.574C215.964 142.574 215.6 142.253 215.585 141.807H215.848C215.871 142.129 216.112 142.334 216.441 142.334C216.839 142.334 217.068 142.086 217.068 141.718C217.068 141.389 216.82 141.126 216.448 141.126C216.197 141.126 216.003 141.234 215.875 141.436L215.666 141.374L215.895 139.918H217.196V140.154H216.088L215.945 141.099C216.104 140.955 216.282 140.893 216.483 140.893C217.018 140.893 217.343 141.265 217.343 141.714C217.343 142.206 217.002 142.574 216.441 142.574Z" fill="#595959"/>
<path d="M21.3549 39.6886V39.9287H19.7751V39.7738L20.6115 38.8291C20.929 38.469 21.0451 38.2754 21.0451 38.0237C21.0451 37.7294 20.8283 37.5126 20.5224 37.5126C20.2049 37.5126 19.9804 37.7333 19.9804 38.0586H19.7171C19.7171 37.6017 20.0539 37.2725 20.534 37.2725C20.9909 37.2725 21.3278 37.5784 21.3278 38.0005C21.3278 38.2831 21.2155 38.4961 20.8128 38.9452L20.174 39.6886H21.3549ZM21.7372 38.6239C21.7372 37.7565 22.0702 37.2725 22.6665 37.2725C23.2589 37.2725 23.5958 37.7565 23.5958 38.6239C23.5958 39.4912 23.2667 39.9674 22.6665 39.9674C22.0625 39.9674 21.7372 39.4912 21.7372 38.6239ZM22.016 38.6239C22.016 39.344 22.2367 39.7274 22.6665 39.7274C23.0885 39.7274 23.317 39.3479 23.317 38.6239C23.317 37.8959 23.0885 37.5126 22.6665 37.5126C22.2445 37.5126 22.016 37.8921 22.016 38.6239ZM24.3587 39.9287H24.0876V37.8882H24.3393V38.2715C24.4748 38.0082 24.7149 37.8495 25.0053 37.8495C25.3228 37.8495 25.559 38.0237 25.6442 38.3218C25.7719 38.0353 26.0275 37.8495 26.3489 37.8495C26.7709 37.8495 27.0342 38.1282 27.0342 38.6045V39.9287H26.767V38.6936C26.767 38.3064 26.5889 38.0857 26.2598 38.0857C25.95 38.0857 25.6984 38.3567 25.6984 38.7323V39.9287H25.4273V38.6936C25.4273 38.3064 25.2492 38.0857 24.9201 38.0857C24.6065 38.0857 24.3587 38.3567 24.3587 38.7323V39.9287Z" fill="#595959"/>
<path d="M21.3904 64.0889H21.1233V61.7037H20.6083V61.4714H21.3904V64.0889ZM22.7559 64.1276C22.2797 64.1276 21.9157 63.8062 21.9002 63.3609H22.1635C22.1868 63.6823 22.4268 63.8875 22.7559 63.8875C23.1548 63.8875 23.3832 63.6397 23.3832 63.2719C23.3832 62.9428 23.1354 62.6795 22.7637 62.6795C22.512 62.6795 22.3184 62.7879 22.1906 62.9892L21.9816 62.9273L22.21 61.4714H23.511V61.7076H22.4036L22.2603 62.6524C22.4191 62.5091 22.5972 62.4472 22.7985 62.4472C23.3329 62.4472 23.6581 62.8189 23.6581 63.268C23.6581 63.7598 23.3174 64.1276 22.7559 64.1276ZM24.3822 64.0889H24.1112V62.0483H24.3629V62.4317C24.4984 62.1684 24.7385 62.0096 25.0289 62.0096C25.3464 62.0096 25.5825 62.1839 25.6677 62.482C25.7955 62.1955 26.051 62.0096 26.3724 62.0096C26.7945 62.0096 27.0578 62.2884 27.0578 62.7647V64.0889H26.7906V62.8537C26.7906 62.4665 26.6125 62.2458 26.2834 62.2458C25.9736 62.2458 25.7219 62.5169 25.7219 62.8924V64.0889H25.4509V62.8537C25.4509 62.4665 25.2728 62.2458 24.9437 62.2458C24.63 62.2458 24.3822 62.5169 24.3822 62.8924V64.0889Z" fill="#595959"/>
<path d="M21.311 88.248H21.0439V85.8629H20.5289V85.6306H21.311V88.248ZM21.8402 86.9432C21.8402 86.0759 22.1732 85.5919 22.7695 85.5919C23.3619 85.5919 23.6987 86.0759 23.6987 86.9432C23.6987 87.8105 23.3696 88.2868 22.7695 88.2868C22.1654 88.2868 21.8402 87.8105 21.8402 86.9432ZM22.119 86.9432C22.119 87.6634 22.3397 88.0467 22.7695 88.0467C23.1915 88.0467 23.42 87.6673 23.42 86.9432C23.42 86.2153 23.1915 85.8319 22.7695 85.8319C22.3474 85.8319 22.119 86.2114 22.119 86.9432ZM24.4616 88.248H24.1906V86.2075H24.4423V86.5908C24.5778 86.3276 24.8179 86.1688 25.1083 86.1688C25.4258 86.1688 25.6619 86.343 25.7471 86.6412C25.8749 86.3547 26.1305 86.1688 26.4518 86.1688C26.8739 86.1688 27.1372 86.4476 27.1372 86.9238V88.248H26.87V87.0129C26.87 86.6257 26.6919 86.405 26.3628 86.405C26.053 86.405 25.8013 86.676 25.8013 87.0516V88.248H25.5303V87.0129C25.5303 86.6257 25.3522 86.405 25.0231 86.405C24.7094 86.405 24.4616 86.676 24.4616 87.0516V88.248Z" fill="#595959"/>
<path d="M22.6642 112.447C22.1879 112.447 21.824 112.126 21.8085 111.68H22.0718C22.095 112.002 22.3351 112.207 22.6642 112.207C23.063 112.207 23.2914 111.959 23.2914 111.591C23.2914 111.262 23.0436 110.999 22.6719 110.999C22.4203 110.999 22.2267 111.107 22.0989 111.309L21.8898 111.247L22.1182 109.791H23.4192V110.027H22.3118L22.1686 110.972C22.3273 110.828 22.5054 110.766 22.7068 110.766C23.2411 110.766 23.5664 111.138 23.5664 111.587C23.5664 112.079 23.2256 112.447 22.6642 112.447ZM24.2905 112.408H24.0194V110.368H24.2711V110.751C24.4066 110.488 24.6467 110.329 24.9371 110.329C25.2546 110.329 25.4908 110.503 25.576 110.801C25.7037 110.515 25.9593 110.329 26.2807 110.329C26.7027 110.329 26.966 110.608 26.966 111.084V112.408H26.6988V111.173C26.6988 110.786 26.5207 110.565 26.1916 110.565C25.8818 110.565 25.6302 110.836 25.6302 111.212V112.408H25.3591V111.173C25.3591 110.786 25.181 110.565 24.8519 110.565C24.5383 110.565 24.2905 110.836 24.2905 111.212V112.408Z" fill="#595959"/>
<path d="M25.0067 135.263C25.0067 134.395 25.3397 133.911 25.936 133.911C26.5284 133.911 26.8652 134.395 26.8652 135.263C26.8652 136.13 26.5361 136.606 25.936 136.606C25.3319 136.606 25.0067 136.13 25.0067 135.263ZM25.2855 135.263C25.2855 135.983 25.5062 136.366 25.936 136.366C26.358 136.366 26.5865 135.987 26.5865 135.263C26.5865 134.535 26.358 134.151 25.936 134.151C25.5139 134.151 25.2855 134.531 25.2855 135.263Z" fill="#595959"/>
<line x1="31.6221" y1="38.59" x2="204.286" y2="38.59" stroke="#F2F2F2" stroke-opacity="0.6" stroke-width="0.483995"/>
<line x1="31.6221" y1="62.7902" x2="204.286" y2="62.7902" stroke="#F2F2F2" stroke-opacity="0.6" stroke-width="0.483995"/>
<line x1="31.6221" y1="86.9894" x2="204.286" y2="86.9894" stroke="#F2F2F2" stroke-opacity="0.6" stroke-width="0.483995"/>
<line x1="31.6221" y1="111.19" x2="204.286" y2="111.19" stroke="#F2F2F2" stroke-opacity="0.6" stroke-width="0.483995"/>
<line x1="31.6221" y1="135.389" x2="204.286" y2="135.389" stroke="#F2F2F2" stroke-opacity="0.6" stroke-width="0.483995"/>
<path d="M50.2718 126.39L35.1196 135.631H219.038V40.2842L200.162 45.1241L179.592 61.096L158.296 90.6324L150.552 69.3239L127.805 78.5198L114.799 90.6324L94.1607 101.079L75.3512 114.739L68.1669 125.185L58.8928 130.006L50.2718 126.39Z" fill="url(#paint0_linear_166_1369)"/>
<path d="M219.038 40.2842L199.929 45.1035L179.494 61.1681L158.263 90.4858L150.566 69.2003L127.742 78.4374L115.269 90.4858L94.3025 100.928L75.1941 114.583L67.8958 125.025L58.4743 129.844L49.7163 126.229L35.1196 134.663" stroke="#13AEFB" stroke-width="0.483995"/>
<circle cx="49.6394" cy="126.436" r="1.93598" fill="#FD6868"/>
<circle cx="58.3515" cy="129.339" r="1.93598" fill="#FD6868"/>
<circle cx="68.0312" cy="125.467" r="1.93598" fill="#FD6868"/>
<circle cx="75.7753" cy="114.335" r="1.93598" fill="#FD6868"/>
<circle cx="94.6511" cy="100.3" r="1.93598" fill="#FD6868"/>
<circle cx="115.463" cy="90.1362" r="1.93598" fill="#F2BD5B"/>
<circle cx="127.806" cy="78.52" r="1.93598" fill="#67C788"/>
<circle cx="150.07" cy="69.809" r="1.93598" fill="#67C788"/>
<circle cx="169.429" cy="74.6479" r="1.93598" fill="#67C788"/>
<circle cx="158.297" cy="90.1362" r="1.93598" fill="#F2BD5B"/>
<circle cx="180.077" cy="61.5805" r="1.93598" fill="#67C788"/>
<circle cx="188.305" cy="54.3207" r="1.93598" fill="#67C788"/>
<circle cx="200.405" cy="45.6088" r="1.93598" fill="#67C788"/>
<circle cx="216.861" cy="40.2846" r="1.93598" fill="#67C788"/>
</g>
<defs>
<filter id="filter0_d_166_1369" x="0.0309796" y="0.536458" width="236.067" height="165.262" filterUnits="userSpaceOnUse" color-interpolation-filters="sRGB">
<feFlood flood-opacity="0" result="BackgroundImageFix"/>
<feColorMatrix in="SourceAlpha" type="matrix" values="0 0 0 0 0 0 0 0 0 0 0 0 0 0 0 0 0 0 127 0" result="hardAlpha"/>
<feMorphology radius="0.96799" operator="erode" in="SourceAlpha" result="effect1_dropShadow_166_1369"/>
<feOffset dy="4.83995"/>
<feGaussianBlur stdDeviation="4.35596"/>
<feComposite in2="hardAlpha" operator="out"/>
<feColorMatrix type="matrix" values="0 0 0 0 0.0627451 0 0 0 0 0.0980392 0 0 0 0 0.156863 0 0 0 0.07 0"/>
<feBlend mode="normal" in2="BackgroundImageFix" result="effect1_dropShadow_166_1369"/>
<feBlend mode="normal" in="SourceGraphic" in2="effect1_dropShadow_166_1369" result="shape"/>
</filter>
<linearGradient id="paint0_linear_166_1369" x1="126.294" y1="75.7667" x2="125.676" y2="135.628" gradientUnits="userSpaceOnUse">
<stop stop-color="#B5E6FF"/>
<stop offset="1" stop-color="#B5E6FF" stop-opacity="0.07"/>
</linearGradient>
</defs>
</svg>
