<svg width="243" height="124" viewBox="0 0 243 124" fill="none" xmlns="http://www.w3.org/2000/svg">
<g filter="url(#filter0_d_166_1422)">
<rect x="9.05786" y="4.25684" width="224.99" height="105.174" rx="2.20579" fill="white" shape-rendering="crispEdges"/>
<path d="M25.1777 24.2854H23.9512V26.4912H22.9807V20.1562H25.1777C26.5982 20.1562 27.5158 20.8797 27.5158 22.2032C27.5158 23.5355 26.5982 24.2854 25.1777 24.2854ZM25.1688 20.9767H23.9512V23.4649H25.1688C26.0247 23.4649 26.5452 22.9972 26.5452 22.212C26.5452 21.4267 26.0247 20.9767 25.1688 20.9767ZM30.2532 26.5794C28.9033 26.5794 27.9945 25.6001 27.9945 24.1266C27.9945 22.7414 28.9386 21.7267 30.2268 21.7267C31.6208 21.7267 32.5473 22.8561 32.3884 24.3737H28.9033C28.9739 25.3266 29.4503 25.8824 30.2356 25.8824C30.8973 25.8824 31.3561 25.5207 31.5061 24.9119H32.3884C32.159 25.953 31.3561 26.5794 30.2532 26.5794ZM30.2091 22.3973C29.4944 22.3973 29.0092 22.909 28.9121 23.7825H31.4444C31.4002 22.9178 30.9326 22.3973 30.2091 22.3973ZM34.227 24.1001V26.4912H33.3359V21.8149H34.1653V22.8031C34.4917 22.159 35.1976 21.7532 35.9652 21.7532V22.6796C34.9594 22.6267 34.227 23.0678 34.227 24.1001ZM38.2522 26.4912H37.361V22.5737H36.3287V21.8149H37.361V21.4708C37.361 20.5709 37.8463 20.0768 38.7286 20.0768C38.9933 20.0768 39.2051 20.1209 39.3815 20.1915V20.915C39.2404 20.8532 39.0816 20.8356 38.9227 20.8356C38.4992 20.8356 38.2522 21.0297 38.2522 21.4797V21.8149H39.558V22.5737H38.2522V26.4912ZM42.0671 26.5794C40.7436 26.5794 39.7731 25.5383 39.7731 24.1531C39.7731 22.7678 40.7436 21.7267 42.0671 21.7267C43.3906 21.7267 44.3611 22.7678 44.3611 24.1531C44.3611 25.5383 43.3906 26.5794 42.0671 26.5794ZM42.0671 25.7942C42.8347 25.7942 43.4435 25.1766 43.4435 24.1531C43.4435 23.1296 42.8347 22.5208 42.0671 22.5208C41.2995 22.5208 40.6995 23.1296 40.6995 24.1531C40.6995 25.1766 41.2995 25.7942 42.0671 25.7942ZM46.1607 24.1001V26.4912H45.2696V21.8149H46.0989V22.8031C46.4254 22.159 47.1312 21.7532 47.8989 21.7532V22.6796C46.893 22.6267 46.1607 23.0678 46.1607 24.1001ZM49.4952 26.4912H48.6041V21.8149H49.4335V22.5914C49.7511 22.0532 50.254 21.7267 50.8981 21.7267C51.5863 21.7267 52.1069 22.0796 52.3186 22.6973C52.6451 22.0973 53.1833 21.7267 53.898 21.7267C54.8597 21.7267 55.4773 22.3532 55.4773 23.4649V26.4912H54.5862V23.7472C54.5862 22.9708 54.2421 22.512 53.5892 22.512C52.9804 22.512 52.4863 23.0237 52.4863 23.809V26.4912H51.5951V23.7472C51.5951 22.9708 51.251 22.512 50.5981 22.512C49.9805 22.512 49.4952 23.0237 49.4952 23.809V26.4912ZM59.5012 26.4912V25.7677C59.2101 26.2883 58.6895 26.5794 58.0013 26.5794C57.0307 26.5794 56.3955 26.0236 56.3955 25.1677C56.3955 24.2501 57.1278 23.7737 58.5219 23.7737C58.7954 23.7737 59.016 23.7825 59.3954 23.8266V23.4825C59.3954 22.812 59.0336 22.4326 58.416 22.4326C57.7631 22.4326 57.366 22.8208 57.3396 23.4737H56.5278C56.5719 22.4237 57.3219 21.7267 58.416 21.7267C59.5718 21.7267 60.2424 22.3796 60.2424 23.4913V26.4912H59.5012ZM57.2425 25.1413C57.2425 25.6265 57.6043 25.9442 58.1778 25.9442C58.9277 25.9442 59.3954 25.4765 59.3954 24.7619V24.3825C59.0512 24.3384 58.8042 24.3295 58.5748 24.3295C57.6837 24.3295 57.2425 24.5942 57.2425 25.1413ZM62.325 23.8531V26.4912H61.4338V21.8149H62.2632V22.5914C62.5808 22.0708 63.1102 21.7267 63.7543 21.7267C64.7161 21.7267 65.3513 22.3443 65.3513 23.4649V26.4912H64.4602V23.7649C64.4602 22.962 64.1073 22.512 63.4455 22.512C62.8367 22.512 62.325 23.0237 62.325 23.8531ZM68.3788 26.5883C67.0994 26.5883 66.1994 25.5824 66.1994 24.1531C66.1994 22.7414 67.1171 21.7267 68.3788 21.7267C69.5346 21.7267 70.3728 22.4943 70.5404 23.7119H69.6052C69.5081 22.962 69.0405 22.512 68.3876 22.512C67.62 22.512 67.1171 23.1649 67.1171 24.1531C67.1171 25.1501 67.62 25.7942 68.3876 25.7942C69.0493 25.7942 69.5081 25.353 69.614 24.5942H70.5404C70.3816 25.8295 69.5522 26.5883 68.3788 26.5883ZM73.3178 26.5794C71.9679 26.5794 71.0591 25.6001 71.0591 24.1266C71.0591 22.7414 72.0032 21.7267 73.2913 21.7267C74.6854 21.7267 75.6118 22.8561 75.453 24.3737H71.9679C72.0384 25.3266 72.5149 25.8824 73.3002 25.8824C73.9619 25.8824 74.4207 25.5207 74.5707 24.9119H75.453C75.2236 25.953 74.4207 26.5794 73.3178 26.5794ZM73.2737 22.3973C72.559 22.3973 72.0737 22.909 71.9767 23.7825H74.5089C74.4648 22.9178 73.9972 22.3973 73.2737 22.3973Z" fill="#121212"/>
<path d="M23.9216 43.1094H23.1937V38.3581H23.9216V40.3433H26.3303V38.3581H27.0582V43.1094H26.3303V40.9786H23.9216V43.1094ZM28.8531 38.7882C28.8531 39.0397 28.6546 39.2316 28.37 39.2316C28.0855 39.2316 27.8803 39.0397 27.8803 38.7882C27.8803 38.5302 28.0855 38.3449 28.37 38.3449C28.6546 38.3449 28.8531 38.5302 28.8531 38.7882ZM28.7075 43.1094H28.0391V39.6022H28.7075V43.1094ZM31.0382 44.4593C30.1184 44.4593 29.5228 43.9696 29.4831 43.1755H30.1316C30.1713 43.6652 30.489 43.9299 31.0316 43.9299C31.6338 43.9299 31.9514 43.6057 31.9514 43.0035V42.3682C31.7529 42.7917 31.3558 43.0366 30.8794 43.0366C30.0059 43.0366 29.3839 42.3153 29.3839 41.283C29.3839 40.2374 29.9794 39.536 30.8595 39.536C31.3625 39.536 31.7595 39.7808 31.9977 40.2242V39.6022H32.6197V42.9903C32.6197 43.9101 32.0308 44.4593 31.0382 44.4593ZM30.0588 41.283C30.0588 42.0109 30.4162 42.4543 30.9985 42.4543C31.5676 42.4543 31.9514 41.9977 31.9514 41.3028C31.9514 40.5749 31.5742 40.1117 30.9985 40.1117C30.4228 40.1117 30.0588 40.5617 30.0588 41.283ZM34.2133 41.1308V43.1094H33.545V38.3581H34.2133V40.1646C34.445 39.7875 34.8023 39.536 35.2854 39.536C36.0067 39.536 36.4831 39.9992 36.4831 40.8396V43.1094H35.8147V41.0646C35.8147 40.4624 35.5501 40.1249 35.0538 40.1249C34.5972 40.1249 34.2133 40.5088 34.2133 41.1308Z" fill="#353535"/>
<path d="M210.427 43.159C209.683 43.159 209.131 42.6241 209.131 41.9403C209.131 41.455 209.33 41.1628 209.622 40.7988L210.747 39.3816H211.183L210.063 40.7988C210.218 40.7437 210.367 40.7161 210.505 40.7161C211.199 40.7161 211.729 41.1959 211.729 41.9293C211.729 42.6241 211.177 43.159 210.427 43.159ZM210.433 42.8392C210.946 42.8392 211.332 42.4587 211.332 41.9403C211.332 41.3833 210.946 41.0139 210.433 41.0139C209.915 41.0139 209.529 41.3337 209.529 41.9293C209.529 42.4587 209.915 42.8392 210.433 42.8392ZM213.383 43.1645C212.705 43.1645 212.187 42.7068 212.165 42.0727H212.539C212.573 42.5304 212.914 42.8226 213.383 42.8226C213.951 42.8226 214.277 42.4697 214.277 41.9458C214.277 41.4771 213.924 41.1021 213.394 41.1021C213.036 41.1021 212.76 41.2565 212.578 41.5433L212.28 41.455L212.606 39.3816H214.459V39.718H212.881L212.677 41.0635C212.903 40.8595 213.157 40.7712 213.444 40.7712C214.205 40.7712 214.668 41.3006 214.668 41.9403C214.668 42.6406 214.183 43.1645 213.383 43.1645ZM216.207 41.6646C215.545 41.6646 215.093 41.1462 215.093 40.5065C215.093 39.8669 215.545 39.3485 216.207 39.3485C216.874 39.3485 217.326 39.8669 217.326 40.5065C217.326 41.1462 216.874 41.6646 216.207 41.6646ZM216.89 43.1094H216.565L218.661 39.3816H218.992L216.89 43.1094ZM216.207 41.3833C216.637 41.3833 216.99 41.0635 216.99 40.5065C216.99 39.9441 216.637 39.6297 216.207 39.6297C215.782 39.6297 215.424 39.9441 215.424 40.5065C215.424 41.0635 215.782 41.3833 216.207 41.3833ZM219.389 43.1535C218.721 43.1535 218.269 42.6406 218.269 41.9955C218.269 41.3558 218.721 40.8374 219.389 40.8374C220.056 40.8374 220.508 41.3558 220.508 41.9955C220.508 42.6406 220.056 43.1535 219.389 43.1535ZM219.389 42.8723C219.813 42.8723 220.172 42.5524 220.172 41.9955C220.172 41.433 219.813 41.1242 219.389 41.1242C218.964 41.1242 218.605 41.433 218.605 41.9955C218.605 42.5524 218.964 42.8723 219.389 42.8723Z" fill="#353535"/>
<g clip-path="url(#clip0_166_1422)">
<rect width="198.521" height="4.41158" transform="translate(22.2925 47.3154)" fill="#F2F2F2"/>
<rect x="22.2925" y="47.3154" width="100.363" height="7.72026" fill="#13AEFB"/>
</g>
<path d="M26.4762 65.3438L26.0461 64.1659H23.9947L23.5579 65.3438H22.8234L24.6432 60.5925H25.4439L27.2504 65.3438H26.4762ZM25.027 61.3866L24.213 63.5769H25.8277L25.027 61.3866ZM30.499 61.8365L29.1822 65.3438H28.4543L27.1374 61.8365H27.8587L28.8315 64.5761L29.8174 61.8365H30.499ZM32.3063 65.4099C31.2939 65.4099 30.6123 64.6754 30.6123 63.5703C30.6123 62.5314 31.3204 61.7704 32.2865 61.7704C33.332 61.7704 34.0269 62.6174 33.9077 63.7556H31.2939C31.3468 64.4703 31.7042 64.8872 32.2931 64.8872C32.7894 64.8872 33.1335 64.6158 33.246 64.1592H33.9077C33.7357 64.9401 33.1335 65.4099 32.3063 65.4099ZM32.2733 62.2733C31.7373 62.2733 31.3733 62.6571 31.3005 63.3122H33.1997C33.1666 62.6637 32.8159 62.2733 32.2733 62.2733ZM35.2867 63.5504V65.3438H34.6183V61.8365H35.2404V62.5777C35.4852 62.0946 36.0146 61.7902 36.5903 61.7902V62.485C35.8359 62.4453 35.2867 62.7762 35.2867 63.5504ZM39.2434 65.3438V64.8011C39.025 65.1916 38.6346 65.4099 38.1185 65.4099C37.3905 65.4099 36.9141 64.993 36.9141 64.3511C36.9141 63.6629 37.4633 63.3056 38.5089 63.3056C38.714 63.3056 38.8795 63.3122 39.164 63.3453V63.0872C39.164 62.5843 38.8927 62.2998 38.4295 62.2998C37.9398 62.2998 37.642 62.5909 37.6222 63.0806H37.0134C37.0464 62.2931 37.6089 61.7704 38.4295 61.7704C39.2963 61.7704 39.7993 62.2601 39.7993 63.0938V65.3438H39.2434ZM37.5494 64.3313C37.5494 64.6952 37.8207 64.9335 38.2508 64.9335C38.8133 64.9335 39.164 64.5828 39.164 64.0467V63.7622C38.9059 63.7291 38.7206 63.7225 38.5486 63.7225C37.8802 63.7225 37.5494 63.921 37.5494 64.3313ZM42.0958 66.6937C41.1759 66.6937 40.5804 66.204 40.5407 65.4099H41.1892C41.2289 65.8996 41.5465 66.1643 42.0891 66.1643C42.6913 66.1643 43.0089 65.8401 43.0089 65.2379V64.6026C42.8104 65.0261 42.4134 65.271 41.9369 65.271C41.0634 65.271 40.4414 64.5497 40.4414 63.5174C40.4414 62.4718 41.037 61.7704 41.9171 61.7704C42.42 61.7704 42.817 62.0152 43.0553 62.4586V61.8365H43.6773V65.2246C43.6773 66.1445 43.0884 66.6937 42.0958 66.6937ZM41.1164 63.5174C41.1164 64.2453 41.4737 64.6886 42.056 64.6886C42.6251 64.6886 43.0089 64.232 43.0089 63.5372C43.0089 62.8093 42.6318 62.3461 42.056 62.3461C41.4803 62.3461 41.1164 62.7961 41.1164 63.5174ZM46.0451 65.4099C45.0327 65.4099 44.3511 64.6754 44.3511 63.5703C44.3511 62.5314 45.0591 61.7704 46.0253 61.7704C47.0708 61.7704 47.7656 62.6174 47.6465 63.7556H45.0327C45.0856 64.4703 45.4429 64.8872 46.0319 64.8872C46.5282 64.8872 46.8723 64.6158 46.9848 64.1592H47.6465C47.4745 64.9401 46.8723 65.4099 46.0451 65.4099ZM46.012 62.2733C45.476 62.2733 45.1121 62.6571 45.0393 63.3122H46.9385C46.9054 62.6637 46.5547 62.2733 46.012 62.2733Z" fill="#353535"/>
<path d="M211.432 65.0019V65.3438H209.182V65.1232L210.373 63.7776C210.826 63.2648 210.991 62.9891 210.991 62.6306C210.991 62.2115 210.682 61.9027 210.247 61.9027C209.794 61.9027 209.475 62.217 209.475 62.6803H209.1C209.1 62.0296 209.579 61.5608 210.263 61.5608C210.914 61.5608 211.394 61.9965 211.394 62.5975C211.394 63.0001 211.234 63.3034 210.66 63.9431L209.75 65.0019H211.432ZM214.619 64.3236C214.619 64.9688 214.078 65.3934 213.312 65.3934C212.54 65.3934 212.005 64.9688 212.005 64.3236C212.005 63.8383 212.336 63.5295 212.76 63.4027C212.424 63.2758 212.159 62.9615 212.159 62.5589C212.159 61.9634 212.661 61.5608 213.312 61.5608C213.962 61.5608 214.459 61.9634 214.459 62.5589C214.459 62.9615 214.194 63.2758 213.863 63.4027C214.282 63.5295 214.619 63.8383 214.619 64.3236ZM212.556 62.57C212.556 63.0001 212.865 63.2593 213.312 63.2593C213.753 63.2593 214.067 63.0001 214.067 62.57C214.067 62.1398 213.753 61.8751 213.312 61.8751C212.865 61.8751 212.556 62.1398 212.556 62.57ZM212.402 64.3125C212.402 64.7923 212.782 65.0791 213.312 65.0791C213.836 65.0791 214.222 64.7923 214.222 64.3125C214.222 63.8383 213.836 63.5736 213.312 63.5736C212.782 63.5736 212.402 63.8383 212.402 64.3125ZM216.255 63.899C215.593 63.899 215.141 63.3806 215.141 62.7409C215.141 62.1012 215.593 61.5829 216.255 61.5829C216.922 61.5829 217.375 62.1012 217.375 62.7409C217.375 63.3806 216.922 63.899 216.255 63.899ZM216.939 65.3438H216.614L218.709 61.616H219.04L216.939 65.3438ZM216.255 63.6177C216.685 63.6177 217.038 63.2979 217.038 62.7409C217.038 62.1784 216.685 61.8641 216.255 61.8641C215.831 61.8641 215.472 62.1784 215.472 62.7409C215.472 63.2979 215.831 63.6177 216.255 63.6177ZM219.437 65.3879C218.77 65.3879 218.318 64.875 218.318 64.2298C218.318 63.5901 218.77 63.0718 219.437 63.0718C220.104 63.0718 220.556 63.5901 220.556 64.2298C220.556 64.875 220.104 65.3879 219.437 65.3879ZM219.437 65.1066C219.862 65.1066 220.22 64.7868 220.22 64.2298C220.22 63.6674 219.862 63.3585 219.437 63.3585C219.012 63.3585 218.654 63.6674 218.654 64.2298C218.654 64.7868 219.012 65.1066 219.437 65.1066Z" fill="#353535"/>
<g clip-path="url(#clip1_166_1422)">
<rect width="198.521" height="4.41158" transform="translate(22.2925 69.5498)" fill="#F2F2F2"/>
<rect x="22.2925" y="69.5498" width="100.363" height="7.72026" fill="#13AEFB"/>
</g>
<path d="M25.9769 87.5791H23.0984V82.8278H23.8263V86.924H25.9769V87.5791ZM28.0106 87.6453C27.018 87.6453 26.2901 86.8644 26.2901 85.8255C26.2901 84.7866 27.018 84.0057 28.0106 84.0057C29.0032 84.0057 29.7311 84.7866 29.7311 85.8255C29.7311 86.8644 29.0032 87.6453 28.0106 87.6453ZM28.0106 87.0563C28.5863 87.0563 29.0429 86.5931 29.0429 85.8255C29.0429 85.0579 28.5863 84.6013 28.0106 84.6013C27.4349 84.6013 26.9849 85.0579 26.9849 85.8255C26.9849 86.5931 27.4349 87.0563 28.0106 87.0563ZM33.2333 87.5791L32.4392 84.9719L31.6385 87.5791H30.9635L29.9511 84.0719H30.6062L31.3143 86.6262L32.1083 84.0719H32.7701L33.5509 86.6328L34.259 84.0719H34.9207L33.9017 87.5791H33.2333Z" fill="#353535"/>
<path d="M214.607 84.0719L213.118 87.5791H212.704L214.176 84.1932H212.175V83.8513H214.607V84.0719ZM216.064 86.1343C215.402 86.1343 214.95 85.616 214.95 84.9763C214.95 84.3366 215.402 83.8182 216.064 83.8182C216.731 83.8182 217.184 84.3366 217.184 84.9763C217.184 85.616 216.731 86.1343 216.064 86.1343ZM216.748 87.5791H216.423L218.518 83.8513H218.849L216.748 87.5791ZM216.064 85.8531C216.494 85.8531 216.847 85.5332 216.847 84.9763C216.847 84.4138 216.494 84.0995 216.064 84.0995C215.64 84.0995 215.281 84.4138 215.281 84.9763C215.281 85.5332 215.64 85.8531 216.064 85.8531ZM219.246 87.6232C218.579 87.6232 218.127 87.1104 218.127 86.4652C218.127 85.8255 218.579 85.3071 219.246 85.3071C219.913 85.3071 220.365 85.8255 220.365 86.4652C220.365 87.1104 219.913 87.6232 219.246 87.6232ZM219.246 87.342C219.671 87.342 220.029 87.0221 220.029 86.4652C220.029 85.9027 219.671 85.5939 219.246 85.5939C218.821 85.5939 218.463 85.9027 218.463 86.4652C218.463 87.0221 218.821 87.342 219.246 87.342Z" fill="#353535"/>
<g clip-path="url(#clip2_166_1422)">
<rect width="198.521" height="4.41158" transform="translate(22.2925 91.7852)" fill="#F2F2F2"/>
<rect x="22.2925" y="91.7852" width="21.5064" height="7.72026" fill="#13AEFB"/>
</g>
</g>
<defs>
<filter id="filter0_d_166_1422" x="0.23471" y="0.948154" width="242.637" height="122.82" filterUnits="userSpaceOnUse" color-interpolation-filters="sRGB">
<feFlood flood-opacity="0" result="BackgroundImageFix"/>
<feColorMatrix in="SourceAlpha" type="matrix" values="0 0 0 0 0 0 0 0 0 0 0 0 0 0 0 0 0 0 127 0" result="hardAlpha"/>
<feMorphology radius="1.10289" operator="erode" in="SourceAlpha" result="effect1_dropShadow_166_1422"/>
<feOffset dy="5.51447"/>
<feGaussianBlur stdDeviation="4.96302"/>
<feComposite in2="hardAlpha" operator="out"/>
<feColorMatrix type="matrix" values="0 0 0 0 0.0627451 0 0 0 0 0.0980392 0 0 0 0 0.156863 0 0 0 0.07 0"/>
<feBlend mode="normal" in2="BackgroundImageFix" result="effect1_dropShadow_166_1422"/>
<feBlend mode="normal" in="SourceGraphic" in2="effect1_dropShadow_166_1422" result="shape"/>
</filter>
<clipPath id="clip0_166_1422">
<rect width="198.521" height="4.41158" fill="white" transform="translate(22.2925 47.3154)"/>
</clipPath>
<clipPath id="clip1_166_1422">
<rect width="198.521" height="4.41158" fill="white" transform="translate(22.2925 69.5498)"/>
</clipPath>
<clipPath id="clip2_166_1422">
<rect width="198.521" height="4.41158" fill="white" transform="translate(22.2925 91.7852)"/>
</clipPath>
</defs>
</svg>
