<svg width="48" height="48" viewBox="0 0 48 48" fill="none" xmlns="http://www.w3.org/2000/svg">
<g clip-path="url(#clip0_44_1797)">
<path d="M46.9399 12.389C46.3797 10.3185 44.7623 8.70113 42.6918 8.14086C38.967 7.125 23.9753 7.125 23.9753 7.125C23.9753 7.125 8.98367 7.15578 5.25885 8.17164C3.18836 8.73191 1.57098 10.3493 1.01071 12.4198C-0.115975 19.0383 -0.553103 29.123 1.04149 35.4767C1.60176 37.5472 3.21914 39.1646 5.28963 39.7249C9.01446 40.7407 24.0061 40.7407 24.0061 40.7407C24.0061 40.7407 38.9977 40.7407 42.7226 39.7249C44.7931 39.1646 46.4104 37.5472 46.9707 35.4767C48.159 28.849 48.5253 18.7705 46.9399 12.389Z" fill="#FF0000"/>
<path d="M19.2038 31.1362L31.6404 23.9329L19.2038 16.7295V31.1362Z" fill="white"/>
</g>
<defs>
<clipPath id="clip0_44_1797">
<rect width="48" height="48" fill="white"/>
</clipPath>
</defs>
</svg>
