<svg width="65" height="25" viewBox="0 0 65 25" fill="none" xmlns="http://www.w3.org/2000/svg">
<path d="M10.9227 11.0498H0.983887V14.4498H6.11233L0.983887 21.0998V24.4998H10.9327V21.0998H5.80422L10.9327 14.4498V11.0498H10.9227Z" fill="#121212"/>
<path d="M26.4371 17.8206C26.4371 16.3706 26.139 15.1306 25.5426 14.0806C24.9463 13.0306 24.1214 12.2406 23.0877 11.7006C22.0442 11.1606 20.8813 10.8906 19.5893 10.8906C18.3072 10.8906 17.1642 11.1706 16.1604 11.7206C15.1565 12.2706 14.3714 13.0706 13.7949 14.1106C13.2284 15.1506 12.9402 16.3606 12.9402 17.7406C12.9402 19.1206 13.2284 20.3406 13.7949 21.3906C14.3614 22.4406 15.1565 23.2506 16.1703 23.8106C17.1841 24.3706 18.327 24.6506 19.6091 24.6506C21.1894 24.6506 22.561 24.2406 23.7039 23.4106C24.8569 22.5806 25.6221 21.4906 25.9998 20.1406H21.5671C21.2789 20.4906 21.0105 20.7506 20.7521 20.9006C20.4937 21.0506 20.116 21.1306 19.5992 21.1306C18.9234 21.1306 18.3668 20.9406 17.9195 20.5606C17.4723 20.1806 17.2039 19.7006 17.1244 19.1006H26.3377C26.3974 18.7206 26.4371 18.2906 26.4371 17.8206ZM17.1543 16.5406C17.2636 15.9106 17.5419 15.4006 17.9891 15.0106C18.4364 14.6206 18.9631 14.4206 19.5694 14.4206C20.275 14.4206 20.8614 14.6206 21.3484 15.0106C21.8255 15.4106 22.0939 15.9106 22.1634 16.5406H17.1543Z" fill="#121212"/>
<path d="M33.2156 6.25031V5.74031C33.2156 5.21031 33.3348 4.84031 33.5634 4.63031C33.792 4.42031 34.1796 4.32031 34.7263 4.32031V0.820312C32.7882 0.820312 31.3769 1.21031 30.4725 2.00031C29.568 2.79031 29.1208 4.03031 29.1208 5.74031V6.25031H27.8784V9.67031H29.1208V24.5003H33.2156V9.67031H50.2209V6.25031H33.2156Z" fill="#121212"/>
<path d="M46.1558 11.0502V12.8102C45.2414 11.5402 43.9394 10.9102 42.23 10.9102C41.1268 10.9102 40.113 11.2002 39.1688 11.7902C38.2345 12.3802 37.4991 13.1902 36.9524 14.2402C36.4058 15.2902 36.1375 16.4702 36.1375 17.8102C36.1375 19.1502 36.4058 20.3302 36.9524 21.3802C37.4991 22.4302 38.2345 23.2402 39.1688 23.8102C40.103 24.3902 41.1268 24.6802 42.23 24.6802C43.8599 24.6802 45.1719 23.9702 46.1558 22.5602V24.5002H50.2506V11.0502H46.1558ZM45.7384 19.6102C45.4601 20.1102 45.0923 20.4802 44.6352 20.7302C44.178 20.9802 43.7108 21.1002 43.2338 21.1002C42.7368 21.1002 42.2697 20.9802 41.8225 20.7302C41.3752 20.4802 41.0075 20.1102 40.7292 19.6202C40.4509 19.1302 40.3118 18.5202 40.3118 17.8002C40.3118 17.0802 40.4509 16.4702 40.7292 15.9702C41.0075 15.4702 41.3752 15.1002 41.8324 14.8502C42.2896 14.6002 42.7567 14.4802 43.2338 14.4802C43.7307 14.4802 44.1979 14.6102 44.6451 14.8502C45.0923 15.0902 45.4601 15.4702 45.7384 15.9602C46.0167 16.4502 46.1558 17.0602 46.1558 17.7802C46.1558 18.5002 46.0167 19.1102 45.7384 19.6102Z" fill="#19AB4B"/>
<path d="M63.6979 18.2702C63.2209 17.7502 62.6444 17.3702 61.9885 17.1402C61.3325 16.9102 60.4877 16.6902 59.4839 16.4802C58.5596 16.2702 57.8937 16.0802 57.4862 15.9102C57.0787 15.7402 56.87 15.4702 56.87 15.1002C56.87 14.7802 57.0091 14.5302 57.2874 14.3702C57.5657 14.2002 57.9632 14.1202 58.4701 14.1202C59.0167 14.1202 59.4242 14.2002 59.6926 14.3702C59.9609 14.5402 60.12 14.8602 60.1697 15.3202H64.3638C64.3042 13.9502 63.7377 12.8802 62.6842 12.0902C61.6307 11.3002 60.2989 10.9102 58.7086 10.9102C57.4762 10.9102 56.4227 11.1002 55.558 11.4802C54.6834 11.8602 54.0275 12.3602 53.5901 13.0002C53.1528 13.6402 52.9342 14.3402 52.9342 15.1102C52.9342 15.9602 53.1727 16.6402 53.6398 17.1502C54.107 17.6602 54.6735 18.0202 55.3195 18.2502C55.9655 18.4802 56.7904 18.6902 57.8042 18.9002C58.7285 19.0902 59.4143 19.2802 59.8417 19.4702C60.269 19.6602 60.4877 19.9402 60.4877 20.3302C60.4877 20.6502 60.3287 20.9302 60.0206 21.1502C59.7125 21.3802 59.3149 21.4902 58.8379 21.4902C58.321 21.4902 57.9235 21.3902 57.6353 21.2002C57.347 21.0102 57.1681 20.6902 57.1085 20.2602H52.9143C53.0137 21.7202 53.6001 22.8302 54.6834 23.5802C55.7668 24.3302 57.1483 24.7002 58.808 24.7002C59.8616 24.7002 60.8157 24.5202 61.6704 24.1602C62.5252 23.8002 63.1911 23.3002 63.688 22.6502C64.175 22.0102 64.4135 21.2702 64.4135 20.4302C64.4135 19.5002 64.175 18.7902 63.6979 18.2702Z" fill="#121212"/>
</svg>
